<svg xmlns="http://www.w3.org/2000/svg" xmlns:xlink="http://www.w3.org/1999/xlink" width="1081.962" height="1081.962" version="1.1"><g transform="scale(8.426966292134832) translate(10, 10)"><g id="SvgjsG1914" fill="#fcb141" featureKey="yUUXwC-0"><path xmlns="http://www.w3.org/2000/svg" fill="#fcb141" stroke-width="1.571" d="m17.128906 2c-0.856859 0-1.546875 0.7910382-1.546875 1.7734375v5.3515625h15.289063c0.504354 0 0.969504 0.113687 1.388672 0.3046875l0.857422-2.1992187h2.509765l6.240235 16.021484h-2.302735l-1.492187-4.109375h-3.654297v10.802734l6.044922 6.929688v-8.71875h3.990234c0.856861 0 1.546875-0.791038 1.546875-1.773438v-22.609374c0-0.9823999-0.690014-1.7734375-1.546875-1.7734375zm17.238282 7.3671875-0.548829 1.4570315c0.381569 0.615611 0.59961 1.338738 0.59961 2.074219v4.441406h2.964843z" transform="matrix(2.159090995788574,0,0,2.159090995788574,-5.318181818181818,5.681818181818182)"/><path xmlns="http://www.w3.org/2000/svg" fill="#fcb141" stroke-width="1.571" d="m3.546875 11.125c-0.8568603 0-1.546875 0.791038-1.546875 1.773438v22.609374c0 0.982402 0.6900147 1.773438 1.546875 1.773438h3.9902344v8.71875l7.6054686-8.71875h15.728516c0.856859 0 1.546875-0.791036 1.546875-1.773438v-22.609374c0-0.9824-0.690016-1.773438-1.546875-1.773438zm11.328125 5.134766h0.376953c0.250961 0 0.576978 0.02276 0.978516 0.07031 0.45173 0.04755 0.777746 0.07227 0.978515 0.07227 0.05019 0.190198 1.88e-4 0.452309-0.15039 0.785156-0.100385 0.142649-0.150391 0.260369-0.150391 0.355469-0.100384 0.237747-0.17637 0.617579-0.226562 1.140625-0.05019 0.142649-0.07422 0.23956-0.07422 0.287109 0.250961 0 0.526972-0.04943 0.828125-0.144531 1.254805-0.142649 2.382875-0.355327 3.386719-0.640625v1.710937c-1.35519 0.332847-2.735243 0.594958-4.140625 0.785157h-0.376953c-0.05019 0.475496-0.1002 1.045243-0.150391 1.710937 0.100384 0 0.252356-0.02277 0.453125-0.07031 0.853267-0.14265 1.479321-0.237607 1.880859-0.285157 0-0.04755 0.02598-0.142504 0.07617-0.285156v-0.427734c-0.05019-0.190199-1.87e-4 -0.309873 0.150391-0.357422l1.80664 0.285156 0.07617 0.214844c-0.05019 0.0951-0.126179 0.285015-0.226562 0.570312 1.204613 0.0951 2.182664 0.452168 2.935547 1.070313 1.154421 1.093641 1.732421 2.280614 1.732421 3.564453v0.5c-0.05019 1.711786-1.028243 3.138106-2.935546 4.279297-0.752883 0.427947-1.356864 0.642578-1.808594 0.642578h-0.07422l-0.376947-0.357426c-0.552115-0.427947-0.978144-0.735584-1.279297-0.925781 1.254805-0.190199 2.332868-0.571982 3.236328-1.142578 0.90346-0.760794 1.381449-1.640131 1.431641-2.638672v-0.285156c-0.05019-1.093642-0.578188-1.997694-1.582031-2.710938-0.200768-0.142649-0.500806-0.260369-0.902344-0.355469h-0.07617c-0.200769-0.0951-0.47678-0.167294-0.828125-0.214843-0.652499 1.759335-1.730562 3.518009-3.236328 5.277343 0.150577 0.475497 0.324621 0.880044 0.52539 1.212891-0.250961 0.04755-0.601003 0.189983-1.052734 0.427734-0.25096 0.04755-0.426959 0.09503-0.527344 0.142579-0.150576-0.0951-0.276568-0.260299-0.376953-0.498047-0.351346 0.237748-0.627357 0.402947-0.828125 0.498047-1.054036 0.713243-1.982081 1.070312-2.785156 1.070312h-0.300781c-1.154421-0.0951-1.7824283-0.902241-1.8828128-2.423828v-0.285156c0.050192-1.474038 0.7782118-2.877596 2.1835938-4.208985 0.652499-0.618144 1.580543-1.187892 2.785156-1.710937 0.05019-0.332848 0.07617-0.832353 0.07617-1.498047 0.05019-0.427947 0.07422-0.617863 0.07422-0.570313h-1.128906c-0.552114 0.04755-0.978144 0.07031-1.279297 0.07031h-1.128906c-0.05019 0-0.12618-0.02277-0.226563-0.07031l-0.300781-0.572265c-0.05019-0.142649-0.1002-0.26037-0.150391-0.355469v-0.07227c-0.150577-0.285298-0.176555-0.497976-0.07617-0.640625h0.828125c0.351346 0.04755 0.60333 0.07031 0.753906 0.07031h1.128907c0.752882 0 1.35491-0.04748 1.80664-0.142578 0-0.0951 0.02403-0.237537 0.07422-0.427735 0.100385-0.713244 0.152344-1.28299 0.152344-1.710937 0-0.285298-0.02598-0.547409-0.07617-0.785156zm3.3125 7.132812c-0.853267 0.142649-1.455295 0.285086-1.806641 0.427734-0.05019 1e-6 -0.126179 0.02277-0.226562 0.07031v1.640625c0 0.855893 0.02598 1.285156 0.07617 1.285156 0.953652-1.23629 1.605686-2.377737 1.957031-3.423828zm-3.839844 1.210938c-1.204613 0.665694-2.132657 1.594463-2.785156 2.783203-0.301153 0.380396-0.451172 0.855186-0.451172 1.425781 0 0.665694 0.326017 0.998047 0.978516 0.998047 0.602306 0 1.22836-0.260158 1.880859-0.783203 0.05019-0.04755 0.102153-0.09503 0.152344-0.142578 0.250961-0.285298 0.425007-0.45245 0.525391-0.5l-0.07422-0.214844c-0.150576-1.141191-0.226563-2.330116-0.226563-3.566406z" transform="matrix(2.159090995788574,0,0,2.159090995788574,-5.318181818181818,5.681818181818182)"/></g></g></svg>