<svg xmlns="http://www.w3.org/2000/svg" width="451" height="557" viewBox="0 0 451 557">
  <g fill="none" fill-rule="evenodd" transform="translate(-2 -17)">
    <ellipse cx="140.5" cy="557" fill="#1A1D1F" rx="96.5" ry="17"/>
    <g transform="rotate(-1 16498.471 141.706)">
      <path fill="#FFCA00" d="M59.1437216,2.12644559 C81.8561059,0.00397770741 88.2985468,4.36575653 88.9166827,22.2035877 C91.9859983,20.9078314 94.6354547,20.0814093 96.6306922,19.729834 C106.60042,17.9730957 113.540841,25.0257634 110.244607,41.970817 C106.948373,58.9158706 94.5948482,74.7917673 75.9412809,93.0170273 C80.6779902,82.1689212 80.3705703,79.2440157 82.50836,71.6262836 C74.8653111,82.7798584 71.2743517,90.5503248 53.3054043,101.310587 C58.1958236,91.9249335 59.3415735,88.8472938 61.3256532,79.7671089 C55.5594601,88.2629627 37.6121676,102.171878 23.0360367,110.459249 C28.1537987,97.6351327 31.2709605,90.0102608 37.4480954,77.8162786 C21.3275736,86.5649538 6.21080295,93.4688096 0.384091161,96.7816313 C7.59739992,78.7064827 21.7946657,61.3570698 28.2919647,53.2811348 C18.4271962,57.2751803 15.8282766,60.5055543 3.51829841,69.1924265 C14.4448868,47.3434799 24.8405653,34.4219838 35.8510836,27.3502986 C26.978355,26.8042517 20.173636,31.9552813 8.01736779,42.1046062 C23.1497555,18.335004 32.7968155,4.58855883 59.1437216,2.12644559 Z"/>
      <path fill="#FF5D00" d="M67.8184164,1.70986553 C76.6194747,-2.33200977 89.9435767,6.38389266 89.6666631,17.6079718 C89.632857,18.9782303 89.3590705,20.3397006 88.8762236,21.6887255 C99.3807001,18.2820129 110.663697,22.1671867 110.663697,32.6220119 C110.663697,46.6220119 86.7907186,63.3636934 78.4074945,68.6160567 C81.9820486,61.8099469 85.5427129,59.5107723 86.9775945,52.9179704 C82.7554311,59.0748313 65.0314961,69.607909 54.3200788,75.5869458 C57.5055676,67.6452056 64.0108469,51.8910178 71.4646296,39.4773356 C57.2040867,48.7897431 38.7606398,56.1660877 32.4747986,59.6747995 C37.7349093,46.5608208 44.853143,34.1281416 49.6149985,28.2786269 C42.3610751,31.1517025 40.2757639,36.6588862 31.9191014,40.4966734 C39.9031153,24.6513018 55.2834226,7.46654622 67.8184164,1.70986553 Z"/>
      <path fill="red" d="M93.6318677,23.5296135 C83.7489487,27.5178446 79.9180492,42.374767 73.3000103,54.6222258 C84.6049912,49.8901926 99.4659716,43.4473661 105.276004,36.5146629 C111.086036,29.5819596 103.514787,19.5413824 93.6318677,23.5296135 Z" transform="rotate(-6 90.3 38.622)"/>
      <path fill="red" d="M71.9668141,4.14855437 C62.0838951,8.13678547 58.2529957,22.9937079 51.6349567,35.2411666 C62.9399376,30.5091335 77.800918,24.0663069 83.6109502,17.1336037 C89.4209824,10.2009005 81.8497332,0.160323262 71.9668141,4.14855437 Z" transform="rotate(-6 68.635 19.241)"/>
    </g>
    <g transform="rotate(-1 13332.531 -4818.375)">
      <path fill="#8F8F8F" d="M32.3554687,1 L45.3554687,1 C49.7737467,1 53.3554687,4.581722 53.3554687,9 C53.3554687,29 53.3554687,49 53.3554687,69 C53.0538984,72.6188443 40.9921965,88.9503694 38.3554687,89.0001179 C35.7033449,89.0502234 24.6438132,73.0368222 24.3554687,69 C24.3554687,49 24.3554687,29 24.3554687,9 C24.3554687,4.581722 27.9371908,1 32.3554687,1 Z" transform="rotate(36 38.855 45)"/>
      <path fill="#E5E5E5" d="M29.5584679,-2.82435004 C32.1579245,-2.56941179 34.1346632,-0.375333945 34.118044,2.23654122 C33.9082493,35.2032616 33.5930437,55.8675079 33.1724272,64.22928 C32.5499769,76.603466 39.5559844,83.720974 38.7958342,83.7370743 C36.3266155,83.786484 26.0298101,67.7730828 25.7613515,63.7362606 C25.5159318,42.9358947 25.2705121,22.1355287 25.0250925,1.33516275 C24.9981787,-0.945892567 26.8255215,-2.81687116 29.1065768,-2.84378491 C29.2574491,-2.84556503 29.4083055,-2.83907701 29.5584679,-2.82435004 Z" transform="rotate(36 31.912 40.231)"/>
      <rect width="33" height="4" x="7" y="62.46" fill="#222" rx="2" transform="rotate(43 23.5 64.46)"/>
      <rect width="33" height="4" x="11.355" y="56" fill="#222" rx="2" transform="rotate(43 27.855 58)"/>
      <rect width="11" height="4" x="9.955" y="54.958" fill="#595959" rx="2" transform="rotate(43 15.455 56.958)"/>
      <rect width="11" height="4" x="14.311" y="48.498" fill="#595959" rx="2" transform="rotate(43 19.81 50.498)"/>
    </g>
    <g transform="rotate(-1 12218.897 -3687.72)">
      <path fill="#8F8F8F" d="M32.3554688,1 L45.3554688,1 C49.7737467,1 53.3554688,4.581722 53.3554688,9 C53.3554688,29 53.3554688,49 53.3554688,69 C53.0538984,72.6188443 40.9921965,88.9503694 38.3554688,89.0001179 C35.7033449,89.0502234 24.6438132,73.0368222 24.3554688,69 C24.3554688,49 24.3554688,29 24.3554688,9 C24.3554688,4.581722 27.9371908,1 32.3554688,1 Z" transform="rotate(36 38.855 45)"/>
      <path fill="#E5E5E5" d="M29.4561446,-2.56270069 C32.0556012,-2.30776244 34.03234,-0.113684594 34.0157207,2.49819058 C33.805926,35.464911 33.4907204,56.1291572 33.0701039,64.4909293 C32.4476537,76.8651154 39.4536612,83.9826233 38.693511,83.9987236 C36.2242923,84.0481334 25.9274868,68.0347322 25.6590282,63.99791 C25.4136085,43.197544 25.1681889,22.3971781 24.9227692,1.5968121 C24.8958555,-0.684243215 26.7231982,-2.55522181 29.0042536,-2.58213556 C29.1551258,-2.58391568 29.3059823,-2.57742766 29.4561446,-2.56270069 Z" transform="rotate(36 31.81 40.493)"/>
      <rect width="33" height="4" x="7" y="62.46" fill="#222" rx="2" transform="rotate(43 23.5 64.46)"/>
      <rect width="10" height="4" x="10.089" y="54.617" fill="#595959" rx="2" transform="rotate(43 15.09 56.617)"/>
      <rect width="33" height="4" x="11.355" y="56" fill="#222" rx="2" transform="rotate(43 27.855 58)"/>
      <rect width="12" height="4" x="14.176" y="48.839" fill="#595959" rx="2" transform="rotate(43 20.176 50.839)"/>
    </g>
    <g transform="translate(323 94)">
      <path fill="#FDB243" d="M7.59123949,74.0966768 C39.5874478,63.3655589 59.5855519,55 67.5855519,49 C79.5855519,40 95.6223055,16.9029169 104.671854,5.00493047 C113.08211,-6.05253794 130.354368,3.13133006 129.671854,14.0049305 C128.886279,26.5204962 105,62 86.5855519,75 C71.1508542,85.8963934 33,100 8,103 C-1.40492693,104.128591 -1.54118044,94.4941502 7.59123949,74.0966768 Z"/>
      <path fill="#E29522" d="M84.9223011,83.3026872 C87.9598672,83.3026872 87.5640857,79.7649356 87.5640857,72.8613762 C87.5640857,65.9578169 89.0942337,59.8842068 86.0566675,59.8842068 C83.0191014,59.8842068 80.1376109,64.2703711 80.1376109,71.1739304 C80.1376109,78.0774898 81.884735,83.3026872 84.9223011,83.3026872 Z" transform="rotate(-126 84.044 71.593)"/>
      <rect width="9" height="7" x="92" y="3" fill="#454545" rx="3.5" transform="rotate(33 96.5 6.5)"/>
      <rect width="37" height="13" x="92.758" y="9.817" fill="#8F8F8F" rx="6.5" transform="rotate(33 111.258 16.317)"/>
      <path fill="#FDB243" d="M104.769231,3 C100.102564,6.33333333 99.7692308,9.66666667 103.769231,13 C107.769231,16.3333333 113.435897,16.6666667 120.769231,14 C118.923077,4.66666667 116.333333,0 113,0 C109.666667,0 106.923077,1 104.769231,3 Z"/>
    </g>
    <g transform="translate(39.413 .113)">
      <path fill="#193A49" d="M170.017603,77.2408081 C140.017603,71.2408081 111.017603,81.9074748 83.0176028,109.240808 C65.829633,126.019541 51.6985368,146.011289 47.0176028,165.240808 C40.2603488,192.999957 49.2485371,220.65649 64.0176028,247.240808 C89.0176028,292.240808 123.017603,320.240808 184.017603,336.240808 C224.684269,346.907475 248.684269,294.574141 256.017603,179.240808 C245.350936,125.240808 229.684269,95.2408081 209.017603,89.2408081 C188.350936,83.2408081 175.350936,79.2408081 170.017603,77.2408081 Z" transform="rotate(24 150.375 206.608)"/>
      <g transform="rotate(24 -576.007 590.686)">
        <path fill="#FDB243" d="M0,28 L0,126 C6.66666667,132 15,135 25,135 C35,135 44,132 52,126 L52,0 L0,28 Z"/>
        <path fill="#FDD291" d="M0,126 C0.666666667,115.333333 3.66666667,110 9,110 C14.3333333,110 17.3333333,116 18,128 C18,116 21,110 27,110 C33,110 36,115.666667 36,127 C36,114.333333 38.6666667,108 44,108 C49.3333333,108 52,114 52,126 C44,132.666667 35.3333333,136 26,136 C16.6666667,136 8,132.666667 0,126 Z"/>
        <ellipse cx="26.5" cy="78" fill="#E29522" rx="18.5" ry="10"/>
        <polygon fill="#E29522" points=".626 78.992 .626 68.992 26.626 54.992"/>
      </g>
      <g transform="rotate(24 -666.532 391.967)">
        <path fill="#FDB243" d="M2.72848411e-12,-1.70530257e-13 L2.72848411e-12,114 C7.33333333,119.333333 15,122 23,122 C31,122 40,120 50,116 L50,22 L2.72848411e-12,-1.70530257e-13 Z"/>
        <path fill="#FDD291" d="M2.72848411e-12,114 C2.72848411e-12,103.333333 2.66666667,98 8,98 C13.3333333,98 16.3333333,104 17,116 C17,104 20,98 26,98 C32,98 35,103.666667 35,115 C35,102.333333 37.6666667,96 43,96 C48.3333333,96 50.6666667,102.666667 50,116 C42.6666667,120.666667 34.3333333,123 25,123 C15.6666667,123 7.33333333,120 2.72848411e-12,114 Z"/>
        <ellipse cx="25.5" cy="65" fill="#E29522" rx="18.5" ry="10"/>
        <path fill="#E29522" d="M0.714961668,0.95078632 L0.987797322,12.5826855 C5.88427968,17.1490705 13.3325209,20.7655963 23.3325209,23.4322629 C33.3325209,26.0989296 42.2344737,27.2438275 50.0383794,26.8669566 L49.7149617,21.9507863 C42.684626,20.4270041 34.3512926,18.0936708 24.7149617,14.9507863 C19.4482175,13.2330404 16.1899174,6.53774445 11.7149617,3.95078632 C9.3166227,2.56431396 5.64995604,1.56431396 0.714961668,0.95078632 Z"/>
      </g>
      <path fill="#FDB243" d="M215.473048,159.049214 C217.473048,139.71588 218.473048,113.049214 218.473048,79.0492137 C218.473048,28.0492137 243.473048,14.0492137 274.473048,15.0492137 C305.473048,16.0492137 318.473048,39.0492137 319.473048,80.0492137 C320.473048,121.049214 318.473048,133.049214 321.473048,159.049214 C324.473048,185.049214 270.473048,190.049214 241.473048,182.049214 C222.139715,176.71588 213.473048,169.049214 215.473048,159.049214 Z" transform="rotate(24 268.392 100.268)"/>
      <g transform="translate(55.589 85.73)">
        <path fill="#9CC0D0" d="M89.5898684,30 C104.256535,42 125.923202,48 154.589868,48 C183.256535,48 200.589868,44 206.589868,36 C224.589868,56 234.256535,78.3333333 235.589868,103 C237.589868,140 230.589868,223 192.589868,248 C154.589868,273 137.589868,284 102.589868,262 C67.5898684,240 37.5898684,184 41.5898684,132 C44.256535,97.3333333 60.256535,63.3333333 89.5898684,30 Z" transform="rotate(24 138.564 151.915)"/>
        <g fill="#81AEC2" transform="translate(40.076 65.892)">
          <path d="M24.9227326,28.2647059 C18.9227326,38.9313725 13.9227326,52.5980392 9.92273264,69.2647059 C3.92273264,94.2647059 6.92273264,135.264706 9.92273264,148.264706 C12.9227326,161.264706 18.9227326,174.264706 23.9227326,179.264706 C24.936473,180.278446 39.7458436,194.161764 42.9227326,194.264706 C46.1477223,194.369206 38.9227326,188.264706 29.9227326,174.264706 C20.9227326,160.264706 14.9227326,133.264706 15.9227326,109.264706 C16.9227326,85.2647059 21.5293355,61.4448972 29.9227326,36.2647059 C32.9227326,27.2647059 49.9227326,2.26470588 42.9227326,0.264705882 C40.256066,-1.73529412 34.256066,7.59803922 24.9227326,28.2647059 Z"/>
          <path d="M22.7843832,128.972232 C13.6047319,126.059898 6.94099795,122.890526 2.47334284,122.690382 C0.80221717,122.615518 4.01708816,129.599192 4.99465104,131.155743 C7.82636577,135.664619 4.85222488,133.631707 18.197472,136.223832 C30.1800831,138.551283 43.0810188,135.71381 41.1426286,133.670444 C39.7229614,132.173893 34.0891899,132.558793 22.7843832,128.972232 Z" transform="rotate(24 21.669 129.893)"/>
          <path d="M25.5031428,58.2197658 C16.3234915,55.3074315 10.6849855,50.4161477 8.88425079,52.3502203 C5.64673637,55.8274609 6.93821837,63.1368362 23.1730158,64.1838674 C41.1633969,65.3441214 36.8079495,61.8063264 25.5031428,58.2197658 Z" transform="rotate(30 21.397 58.16)"/>
        </g>
        <g stroke="#DAE0E2" stroke-linecap="round" stroke-width="4" transform="translate(38 65.388)">
          <path d="M35.5908313,36 C62.9241646,48.6666667 95.5908313,54.6666667 133.590831,54 C171.590831,53.3333333 198.590831,47.6666667 214.590831,37" transform="rotate(24 125.09 45.025)"/>
          <path d="M1.92212065,78.9932684 C27.255454,96.3266017 60.9221206,104.993268 102.922121,104.993268 C144.922121,104.993268 173.588787,98.9932684 188.922121,86.9932684" transform="rotate(24 95.422 91.993)"/>
          <path d="M-3,141.183804 C25,151.850471 53.3333333,156.850471 82,156.183804 C110.666667,155.517137 133.666667,150.517137 151,141.183804" transform="rotate(24 74 148.713)"/>
        </g>
      </g>
      <g transform="rotate(24 12.254 622.298)">
        <ellipse cx="63" cy="22" fill="#E29522" rx="8" ry="4"/>
        <ellipse cx="10" cy="22" fill="#E29522" rx="8" ry="4"/>
        <path fill="#1D1D1B" d="M26.7149617,23.617453 C26.7149617,18.617453 32.7149617,23.9507863 36.7149617,23.617453 C40.7149617,23.2841197 46.7149617,17.617453 46.7149617,23.617453 C46.7149617,29.617453 43.7149617,34.9507863 36.7149617,34.9507863 C29.7149617,34.9507863 26.7149617,28.617453 26.7149617,23.617453 Z"/>
        <path stroke="#1D1D1B" stroke-linecap="round" stroke-width="4" d="M0 9C.666666667 3 4 0 10 0 16 0 19.3333333 3 20 9M53 9C53.6666667 3 57 0 63 0 69 0 72.3333333 3 73 9"/>
      </g>
      <path fill="#072A39" d="M250.945395,147.608151 C267.388224,147.334104 271.945395,144.608151 283.945395,141.608151 C295.945395,138.608151 299.945395,134.608151 303.945395,131.608151 C307.945395,128.608151 310.945395,134.608151 307.945395,137.608151 C304.945395,140.608151 296.090781,146.404371 280.945395,149.608151 C274.636601,150.942682 262.270897,153.897621 250.945395,153.608151 C239.619893,153.318681 221.945395,149.608151 214.945395,146.608151 C207.371361,143.362137 199.945395,138.608151 194.945395,135.608151 C189.945395,132.608151 192.945395,125.608151 197.945395,129.608151 C202.945395,133.608151 214.945395,139.608151 223.945395,142.608151 C232.945395,145.608151 234.502565,147.882198 250.945395,147.608151 Z" transform="rotate(24 250.77 141.016)"/>
      <path fill="#092531" d="M166.398582,84.8916748 C155.373043,95.3046403 147.706377,103.30464 143.398582,108.891675 C128.531221,128.174039 117.398582,155.891675 115.398582,171.891675 C110.315076,212.559724 121.542229,250.774028 132.542229,272.774028 C143.542229,294.774028 142.730867,292.008589 147.542229,299.774028 C152.35359,307.539467 154.398582,308.891675 158.398582,311.891675 C162.398582,314.891675 156.458075,318.421421 153.398582,316.891675 C150.915387,315.650077 145.294495,311.361387 141.398582,305.891675 C132.743203,293.739856 123.369433,274.807638 118.542229,263.774028 C111.542229,247.774028 107.398582,219.891675 106.398582,198.891675 C105.661898,183.421307 107.000924,167.312096 114.398582,146.891675 C117.042755,139.592726 121.194,129.461334 125.398582,122.891675 C141.398582,97.8916748 149.542229,92.7740278 159.398582,82.8916748 C165.969485,76.3034395 168.302818,76.9701062 166.398582,84.8916748 Z" transform="rotate(24 136.63 197.833)"/>
      <path fill="#315F74" d="M41.4840208 28.6875C29.4840208 38.6875 20.1506875 49.0208333 13.4840208 59.6875 3.48402082 75.6875 4.48402082 84.6875 8.48402082 86.6875 12.4840208 88.6875 12.4840208 89.6875 16.4840208 90.6875 20.4840208 91.6875 21.4840208 91.6875 25.4840208 80.6875 29.4840208 69.6875 40.4840208 40.6875 43.4840208 35.6875 46.4840208 30.6875 48.4840208 29.6875 46.4840208 28.6875 45.1506875 28.0208333 43.4840208 28.0208333 41.4840208 28.6875zM14.4840208 93.6875C14.4840208 93.6875 6.48402082 91.6875 3.48402082 93.6875.484020823 95.6875-1.51597918 109.6875 1.48402082 120.6875 4.48402082 131.6875 9.48402082 148.6875 14.4840208 149.6875 19.4840208 150.6875 22.4840208 151.6875 22.4840208 143.6875 22.4840208 135.6875 22.4840208 108.6875 22.4840208 101.6875 22.4840208 97.0208333 21.1506875 94.3541667 18.4840208 93.6875 15.8173542 93.6875 14.4840208 93.6875 14.4840208 93.6875zM31.4840208 77.6875C34.7549047 66.9128237 39.4840208 58.6875 41.4840208 55.6875 43.4840208 52.6875 45.4840208 49.6875 51.4840208 52.6875 57.4840208 55.6875 59.4840208 56.6875 62.4840208 57.6875 65.4840208 58.6875 66.4840208 62.6875 62.4840208 75.6875 58.4840208 88.6875 56.4840208 97.6875 55.4840208 108.6875 54.4840208 119.6875 51.4840208 123.6875 47.4840208 123.6875 43.4840208 123.6875 33.4840208 123.6875 29.4840208 123.6875 25.4840208 123.6875 23.4840208 117.6875 24.4840208 111.6875 25.4840208 105.6875 28.213137 88.4621763 31.4840208 77.6875zM38.4840208 125.6875C31.4840208 125.6875 28.4840208 126.6875 26.4840208 127.6875 24.4840208 128.6875 24.4840208 146.6875 28.4840208 161.6875 32.4840208 176.6875 36.4840208 179.6875 41.4840208 178.6875 46.4840208 177.6875 53.4840208 174.6875 57.4840208 173.6875 61.4840208 172.6875 59.4840208 163.6875 57.4840208 153.6875 55.4840208 143.6875 53.4840208 135.6875 52.4840208 129.6875 51.4840208 123.6875 45.4840208 125.6875 38.4840208 125.6875zM63.4840208 18.6875C63.4840208 18.6875 52.4840208 30.6875 49.4840208 38.6875 46.4840208 46.6875 48.4840208 47.6875 52.4840208 49.6875 56.4840208 51.6875 58.4840208 53.6875 63.4840208 54.6875 68.4840208 55.6875 74.4840208 46.6875 80.4840208 38.6875 86.4840208 30.6875 103.484021 11.6875 106.484021 9.6875 109.484021 7.6875 107.484021 4.6875 101.484021 1.6875 95.4840208-1.3125 86.4840208-.3125 78.4840208 4.6875 70.4840208 9.6875 63.4840208 18.6875 63.4840208 18.6875zM49.4840208 178.6875C44.3080403 179.587671 40.4840208 180.6875 39.4840208 182.6875 38.4840208 184.6875 51.4840208 201.6875 57.4840208 208.6875 61.4484326 213.312647 73.6386983 224.066022 78.4840208 226.6875 80.9719261 228.033538 84.1906988 223.320751 83.4840208 220.6875 82.6616915 217.623304 78.1731164 210.065691 75.4840208 204.6875 70.4840208 194.6875 64.4840208 183.6875 62.4840208 178.6875 60.4840208 173.6875 54.6600014 177.787329 49.4840208 178.6875z" transform="rotate(24 -63.378 280.498)"/>
      <g transform="translate(36 91.712)">
        <rect width="10" height="5" x="28.774" y="93.387" fill="#363636" rx="2.5" transform="rotate(37 33.774 95.887)"/>
        <rect width="40" height="13" y="77.767" fill="#8F8F8F" rx="6.5" transform="rotate(37 20 84.267)"/>
        <g transform="rotate(110 49.001 57.318)">
          <path fill="#FDB243" d="M13.3654177,3.6856593 C19.0895246,7.59635353 25.0144227,12.1796596 31.1401119,17.4355774 C35.2583424,20.9690706 41.622223,34.8689617 46.3516516,40.1968485 C60.5587968,56.2017548 81.7453946,57.2638622 92.7616848,63.4800789 C103.777975,69.6962955 97.1481481,89 80.1481481,89 C63.1481481,89 39.1481481,77 20.1481481,54 C1.14814815,31 -0.293479198,16.4192472 0.868081109,6.90653736 C1.71168966,-0.00227600074 5.87746853,-1.07590202 13.3654177,3.6856593 Z"/>
          <path fill="#FDD291" d="M77.1481481,89 C68.4814815,84.3333333 65.1481481,80.6666667 67.1481481,78 C69.1481481,75.3333333 74.4814815,76.6666667 83.1481481,82 C75.8148148,76.6666667 73.4814815,72.3333333 76.1481481,69 C78.8148148,65.6666667 83.4814815,67 90.1481481,73 C84.1481481,67 81.8148148,63 83.1481481,61 C84.4814815,59 88.4814815,60 95.1481481,64 C99.1481481,70 98.8148148,76 94.1481481,82 C89.4814815,88 83.8148148,90.3333333 77.1481481,89 Z"/>
        </g>
      </g>
    </g>
  </g>
</svg>
