<?xml version="1.0" encoding="UTF-8" standalone="no"?>
<svg
   xmlns:dc="http://purl.org/dc/elements/1.1/"
   xmlns:cc="http://creativecommons.org/ns#"
   xmlns:rdf="http://www.w3.org/1999/02/22-rdf-syntax-ns#"
   xmlns:svg="http://www.w3.org/2000/svg"
   xmlns="http://www.w3.org/2000/svg"
   xmlns:sodipodi="http://sodipodi.sourceforge.net/DTD/sodipodi-0.dtd"
   xmlns:inkscape="http://www.inkscape.org/namespaces/inkscape"
   version="1.1"
   width="9460"
   height="2400"
   id="svg15"
   sodipodi:docname="logo_for_readme.svg"
   inkscape:version="0.92.4 5da689c313, 2019-01-14">
  <metadata
     id="metadata21">
    <rdf:RDF>
      <cc:Work
         rdf:about="">
        <dc:format>image/svg+xml</dc:format>
        <dc:type
           rdf:resource="http://purl.org/dc/dcmitype/StillImage" />
        <dc:title></dc:title>
      </cc:Work>
    </rdf:RDF>
  </metadata>
  <defs
     id="defs19" />
  <sodipodi:namedview
     pagecolor="#ffffff"
     bordercolor="#666666"
     borderopacity="1"
     objecttolerance="10"
     gridtolerance="10"
     guidetolerance="10"
     inkscape:pageopacity="0"
     inkscape:pageshadow="2"
     inkscape:window-width="1880"
     inkscape:window-height="997"
     id="namedview17"
     showgrid="false"
     fit-margin-top="0"
     fit-margin-left="0"
     fit-margin-right="0"
     fit-margin-bottom="0"
     inkscape:zoom="0.044074221"
     inkscape:cx="1151.1177"
     inkscape:cy="5647.8437"
     inkscape:window-x="20"
     inkscape:window-y="40"
     inkscape:window-maximized="0"
     inkscape:current-layer="svg15" />
  <rect
     width="9460"
     height="2400"
     id="rect2"
     x="0"
     y="0"
     style="fill:#325f74;stroke-width:1.62337685" />
  <g
     transform="matrix(9.4403438,0,0,9.440345,3430,78.945829)"
     id="g13">
    <defs
       id="SvgjsDefs5343" />
    <g
       id="SvgjsG5344"
       featureKey="yUUXwC-0"
       transform="matrix(2.7272727,0,0,2.7272727,72.545455,22.545455)"
       style="fill:#fcb141">
      <path
         d="M 17.128906,2 C 16.272047,2 15.582031,2.7910382 15.582031,3.7734375 V 9.125 h 15.289063 c 0.504354,0 0.969504,0.113687 1.388672,0.3046875 l 0.857422,-2.1992187 h 2.509765 L 41.867188,23.251953 H 39.564453 L 38.072266,19.142578 H 34.417969 V 29.945312 L 40.462891,36.875 v -8.71875 h 3.990234 C 45.309986,28.15625 46,27.365212 46,26.382812 V 3.7734378 C 46,2.7910379 45.309986,2.0000003 44.453125,2.0000003 Z m 17.238282,7.3671875 -0.548829,1.4570315 c 0.381569,0.615611 0.59961,1.338738 0.59961,2.074219 v 4.441406 h 2.964843 z"
         style="fill:#fcb141;stroke-width:1.57142854"
         id="path5"
         inkscape:connector-curvature="0" />
      <path
         d="M 3.546875,11.125 C 2.6900147,11.125 2,11.916038 2,12.898438 v 22.609374 c 0,0.982402 0.6900147,1.773438 1.546875,1.773438 H 7.5371094 V 46 l 7.6054686,-8.71875 h 15.728516 c 0.856859,0 1.546875,-0.791036 1.546875,-1.773438 V 12.898438 c 0,-0.9824 -0.690016,-1.773438 -1.546875,-1.773438 z M 14.875,16.259766 h 0.376953 c 0.250961,0 0.576978,0.02276 0.978516,0.07031 0.45173,0.04755 0.777746,0.07227 0.978515,0.07227 0.05019,0.190198 1.88e-4,0.452309 -0.15039,0.785156 -0.100385,0.142649 -0.150391,0.260369 -0.150391,0.355469 -0.100384,0.237747 -0.17637,0.617579 -0.226562,1.140625 -0.05019,0.142649 -0.07422,0.23956 -0.07422,0.287109 0.250961,0 0.526972,-0.04943 0.828125,-0.144531 1.254805,-0.142649 2.382875,-0.355327 3.386719,-0.640625 v 1.710937 c -1.35519,0.332847 -2.735243,0.594958 -4.140625,0.785157 h -0.376953 c -0.05019,0.475496 -0.1002,1.045243 -0.150391,1.710937 0.100384,0 0.252356,-0.02277 0.453125,-0.07031 0.853267,-0.14265 1.479321,-0.237607 1.880859,-0.285157 0,-0.04755 0.02598,-0.142504 0.07617,-0.285156 v -0.427734 c -0.05019,-0.190199 -1.87e-4,-0.309873 0.150391,-0.357422 l 1.80664,0.285156 0.07617,0.214844 c -0.05019,0.0951 -0.126179,0.285015 -0.226562,0.570312 1.204613,0.0951 2.182664,0.452168 2.935547,1.070313 1.154421,1.093641 1.732421,2.280614 1.732421,3.564453 v 0.5 c -0.05019,1.711786 -1.028243,3.138106 -2.935546,4.279297 -0.752883,0.427947 -1.356864,0.642578 -1.808594,0.642578 h -0.07422 L 19.84375,31.736328 c -0.552115,-0.427947 -0.978144,-0.735584 -1.279297,-0.925781 1.254805,-0.190199 2.332868,-0.571982 3.236328,-1.142578 0.90346,-0.760794 1.381449,-1.640131 1.431641,-2.638672 v -0.285156 c -0.05019,-1.093642 -0.578188,-1.997694 -1.582031,-2.710938 -0.200768,-0.142649 -0.500806,-0.260369 -0.902344,-0.355469 h -0.07617 c -0.200769,-0.0951 -0.47678,-0.167294 -0.828125,-0.214843 -0.652499,1.759335 -1.730562,3.518009 -3.236328,5.277343 0.150577,0.475497 0.324621,0.880044 0.52539,1.212891 -0.250961,0.04755 -0.601003,0.189983 -1.052734,0.427734 -0.25096,0.04755 -0.426959,0.09503 -0.527344,0.142579 -0.150576,-0.0951 -0.276568,-0.260299 -0.376953,-0.498047 -0.351346,0.237748 -0.627357,0.402947 -0.828125,0.498047 -1.054036,0.713243 -1.982081,1.070312 -2.785156,1.070312 H 11.261721 C 10.1073,31.49865 9.4792927,30.691509 9.3789082,29.169922 v -0.285156 c 0.050192,-1.474038 0.7782118,-2.877596 2.1835938,-4.208985 0.652499,-0.618144 1.580543,-1.187892 2.785156,-1.710937 0.05019,-0.332848 0.07617,-0.832353 0.07617,-1.498047 0.05019,-0.427947 0.07422,-0.617863 0.07422,-0.570313 h -1.128906 c -0.552114,0.04755 -0.978144,0.07031 -1.279297,0.07031 h -1.128906 c -0.05019,0 -0.12618,-0.02277 -0.226563,-0.07031 l -0.300781,-0.572265 c -0.05019,-0.142649 -0.1002,-0.26037 -0.150391,-0.355469 v -0.07227 c -0.150577,-0.285298 -0.176555,-0.497976 -0.07617,-0.640625 h 0.828125 c 0.351346,0.04755 0.60333,0.07031 0.753906,0.07031 h 1.128907 c 0.752882,0 1.35491,-0.04748 1.80664,-0.142578 0,-0.0951 0.02403,-0.237537 0.07422,-0.427735 0.100385,-0.713244 0.152344,-1.28299 0.152344,-1.710937 0,-0.285298 -0.02598,-0.547409 -0.07617,-0.785156 z m 3.3125,7.132812 c -0.853267,0.142649 -1.455295,0.285086 -1.806641,0.427734 -0.05019,10e-7 -0.126179,0.02277 -0.226562,0.07031 v 1.640625 c 0,0.855893 0.02598,1.285156 0.07617,1.285156 0.953652,-1.23629 1.605686,-2.377737 1.957031,-3.423828 z m -3.839844,1.210938 c -1.204613,0.665694 -2.132657,1.594463 -2.785156,2.783203 -0.301153,0.380396 -0.451172,0.855186 -0.451172,1.425781 0,0.665694 0.326017,0.998047 0.978516,0.998047 0.602306,0 1.22836,-0.260158 1.880859,-0.783203 0.05019,-0.04755 0.102153,-0.09503 0.152344,-0.142578 0.250961,-0.285298 0.425007,-0.45245 0.525391,-0.5 l -0.07422,-0.214844 c -0.150576,-1.141191 -0.226563,-2.330116 -0.226563,-3.566406 z"
         style="fill:#fcb141;stroke-width:1.57142854"
         id="path7"
         inkscape:connector-curvature="0" />
    </g>
    <g
       id="SvgjsG5345"
       featureKey="edi7fj-0"
       transform="matrix(2.8267393,0,0,2.8267393,-5.1621914,155.86518)"
       style="fill:#daecfb">
      <path
         d="M 4.7559,17.4121 H 9.1797 V 20 H 1.8262 V 5.889 H 4.7559 V 17.412 Z M 12.480444,8.457 c -0.88867,0 -1.6309,-0.72266 -1.6309,-1.6211 0,-0.88867 0.74219,-1.6113 1.6309,-1.6113 0.86914,0 1.6113,0.72266 1.6113,1.6113 0,0.89844 -0.74219,1.6211 -1.6113,1.6211 z M 11.044944,20 V 9.961 h 2.832 V 20 Z M 22.685531,9.766 c 2.6367,0 4.8242,1.9531 4.8242,5.2344 0,3.2813 -2.1875,5.2344 -4.8242,5.2344 -1.3867,0 -2.5977,-0.55664 -3.1641,-1.543 l -0.06836,1.3086 h -2.666 v -15 h 2.8125 v 6.1816 c 0.58594,-0.9082 1.7578,-1.416 3.0859,-1.416 z m -0.6543,8.1344 c 1.4941,0 2.666,-1.1035 2.666,-2.9004 0,-1.8066 -1.1719,-2.9102 -2.666,-2.9102 -1.4844,0 -2.6563,1.1523 -2.6563,2.9102 0,1.7579 1.1621,2.9004 2.6563,2.9004 z m 10.292997,-6.3477 c 0.50781,-0.88867 1.8262,-1.709 3.2813,-1.709 v 2.5098 c -2.1289,0 -3.1445,0.625 -3.1445,2.7539 V 20 h -2.832 V 9.961 h 2.6953 v 1.5918 z m 14.374553,3.2813 -0.0293,0.67383 h -7.4414 c 0.11719,1.6699 1.2305,2.4707 2.5684,2.4707 1.0059,0 1.7871,-0.46875 2.168,-1.3574 l 2.5781,0.38086 c -0.66406,2.0313 -2.4707,3.1934 -4.7266,3.1934 -3.2422,0 -5.3613,-1.9141 -5.3613,-5.2148 0,-3.3007 2.1777,-5.2344 5.2734,-5.2344 2.8418,0 4.9609,1.5723 4.9707,5.0879 z m -4.9507,-3.0957 c -1.2793,0 -2.168,0.5957 -2.4414,1.9336 h 4.6094 c -0.14648,-1.2793 -1.0156,-1.9336 -2.168,-1.9336 z m 10.390631,5.6738 h 4.4238 V 20 h -7.3535 V 5.889 h 2.9297 V 17.412 Z M 59.863256,8.457 c -0.88867,0 -1.6309,-0.72266 -1.6309,-1.6211 0,-0.88867 0.74219,-1.6113 1.6309,-1.6113 0.86914,0 1.6113,0.72266 1.6113,1.6113 0,0.89844 -0.74219,1.6211 -1.6113,1.6211 z M 58.427756,20 V 9.961 h 2.832 V 20 Z M 70.097644,9.766 c 2.4121,0 3.7402,1.25 3.7402,3.4766 v 6.7578 h -2.8223 v -6.1523 c 0,-1.3379 -0.83008,-1.8262 -1.7969,-1.8262 -1.1621,0 -2.2168,0.58594 -2.2363,2.4414 v 5.5371 h -2.8125 V 9.9614 h 2.8125 v 1.1133 c 0.70313,-0.83008 1.7871,-1.3086 3.1152,-1.3086 z m 13.378878,0.195 h 2.6758 v 9.2871 c 0,3.9063 -2.1191,5.4883 -5.3223,5.4883 -2.8809,0 -4.4434,-1.2109 -5.1758,-3.1152 l 2.334,-0.99609 c 0.56641,1.2988 1.3867,1.9238 2.7344,1.9238 1.7773,0 2.6074,-1.1133 2.6074,-3.0957 v -1.1719 c -0.58594,0.80078 -1.7383,1.3672 -3.0469,1.3672 -2.4902,0 -4.5801,-1.9629 -4.5801,-4.9609 0,-3.0078 2.0996,-4.9219 4.5996,-4.9219 1.4063,0 2.5586,0.625 3.1055,1.5234 z m -2.4707,7.412 c 1.4648,0 2.5977,-1.1914 2.5977,-2.6855 0,-1.5039 -1.1133,-2.6953 -2.5977,-2.6953 -1.4746,0 -2.5879,1.1426 -2.5879,2.6953 0,1.5332 1.1328,2.6855 2.5879,2.6855 z m 12.744166,2.82231 c -3.1934,0 -5.498001,-1.9434 -5.498001,-5.2246 0,-3.2617 2.285201,-5.2051 5.498001,-5.2051 3.2324,0 5.5078,1.9434 5.5078,5.2051 0,3.2813 -2.2852,5.2246 -5.5078,5.2246 z m -0.0293,-2.23631 c 1.6309,0 2.7441,-1.1914 2.7441,-2.9883 0,-1.7969 -1.113299,-2.9883 -2.7441,-2.9883 -1.5723,0 -2.675799,1.1914 -2.675799,2.9883 0,1.7969 1.103499,2.9883 2.675799,2.9883 z"
         id="path10"
         inkscape:connector-curvature="0" />
    </g>
  </g>
</svg>
