<svg xmlns="http://www.w3.org/2000/svg" width="303" height="475" viewBox="0 0 303 475">
  <g fill="none" fill-rule="evenodd">
    <ellipse cx="129.785" cy="447" fill="#E0DAD4" rx="117.5" ry="28"/>
    <path fill="#FDB243" d="M11,0 C20.4320988,29.3333333 33.1481481,52.3333333 49.1481481,69 C73.1481481,94 84.1481481,88 93.1481481,99 C102.148148,110 97.1481481,127 80.1481481,127 C63.1481481,127 39.1481481,115 20.1481481,92 C1.14814815,69 3.14814815,56 1.14814815,43 C-0.185185185,34.3333333 3.09876543,20 11,0 Z" transform="translate(205 128)"/>
    <path fill="#193A49" d="M125.285038,102 C95.2850383,96 66.2850383,106.666667 38.2850383,134 C21.0970686,150.778732 6.96597235,170.770481 2.28503833,190 C-4.47221561,217.759149 4.51597271,245.415682 19.2850383,272 C44.2850383,317 78.2850383,345 139.285038,361 C179.951705,371.666667 203.951705,319.333333 211.285038,204 C200.618372,150 184.951705,120 164.285038,114 C143.618372,108 130.618372,104 125.285038,102 Z"/>
    <g transform="translate(174.285 317)">
      <path fill="#FDB243" d="M0,28 L0,126 C6.66666667,132 15,135 25,135 C35,135 44,132 52,126 L52,0 L0,28 Z"/>
      <path fill="#FDD291" d="M0,126 C0.666666667,115.333333 3.66666667,110 9,110 C14.3333333,110 17.3333333,116 18,128 C18,116 21,110 27,110 C33,110 36,115.666667 36,127 C36,114.333333 38.6666667,108 44,108 C49.3333333,108 52,114 52,126 C44,132.666667 35.3333333,136 26,136 C16.6666667,136 8,132.666667 0,126 Z"/>
      <ellipse cx="26.5" cy="78" fill="#E29522" rx="18.5" ry="10"/>
      <polygon fill="#E29522" points="0 53 0 43 26 29"/>
    </g>
    <g transform="translate(101.285 330)">
      <path fill="#FDB243" d="M0,0 L0,114 C7.33333333,119.333333 15,122 23,122 C31,122 40,120 50,116 L50,22 L0,0 Z"/>
      <path fill="#FDD291" d="M0,114 C0,103.333333 2.66666667,98 8,98 C13.3333333,98 16.3333333,104 17,116 C17,104 20,98 26,98 C32,98 35,103.666667 35,115 C35,102.333333 37.6666667,96 43,96 C48.3333333,96 50.6666667,102.666667 50,116 C42.6666667,120.666667 34.3333333,123 25,123 C15.6666667,123 7.33333333,120 0,114 Z"/>
      <ellipse cx="25.5" cy="65" fill="#E29522" rx="18.5" ry="10"/>
      <path fill="#E29522" d="M0,5 L0,27 C3.33333333,30.3333333 10,33.3333333 20,36 C30,38.6666667 40,40.3333333 50,41 L50,34 C41.7922043,32.6261452 33.1255377,29.2928119 24,24 C14.8744623,18.7071881 6.87446232,12.3738548 0,5 Z"/>
    </g>
    <path fill="#FDB243" d="M117.285038,145 C119.285038,125.666667 120.285038,99 120.285038,65 C120.285038,14 145.285038,3.1052938e-13 176.285038,1 C207.285038,2 220.285038,25 221.285038,66 C222.285038,107 220.285038,119 223.285038,145 C226.285038,171 172.285038,176 143.285038,168 C123.951705,162.666667 115.285038,155 117.285038,145 Z"/>
    <path fill="#9CC0D0" d="M109.285038,120 C123.951705,132 145.618372,138 174.285038,138 C202.951705,138 220.285038,134 226.285038,126 C244.285038,146 253.951705,168.333333 255.285038,193 C257.285038,230 250.285038,313 212.285038,338 C174.285038,363 157.285038,374 122.285038,352 C87.2850383,330 57.2850383,274 61.2850383,222 C63.951705,187.333333 79.951705,153.333333 109.285038,120 Z"/>
    <path fill="#81AEC2" d="M139.285038,354 C107.285038,343 87.2850383,265 81.2850383,244 C77.2850383,230 73.2850383,210.666667 69.2850383,186 C64.6183717,195.333333 61.951705,205 61.2850383,215 C60.2850383,230 62.2850383,264 73.2850383,291 C84.2850383,318 102.285038,336 109.285038,342 C116.285038,348 110.285038,352 136.285038,360 C162.285038,368 150.285038,357 139.285038,354 Z"/>
    <path stroke="#DAE0E2" stroke-linecap="round" stroke-width="4" d="M74.2850383,185 C101.618372,197.666667 134.285038,203.666667 172.285038,203 C210.285038,202.333333 237.285038,196.666667 253.285038,186"/>
    <path fill="#81AEC2" d="M78.2850383,165 C75.0504704,184.333333 81.4331865,202.333333 97.4331865,219 C121.433186,244 132.433186,238 141.433186,249 C150.433186,260 145.433186,277 128.433186,277 C111.433186,277 87.4331865,265 68.4331865,242 C55.7665198,226.666667 59.0504704,201 78.2850383,165 Z"/>
    <path stroke="#DAE0E2" stroke-linecap="round" stroke-width="4" d="M62.2850383 236C87.6183717 253.333333 121.285038 262 163.285038 262 205.285038 262 233.951705 256 249.285038 244M82.2850383 302C110.285038 312.666667 138.618372 317.666667 167.285038 317 195.951705 316.333333 218.951705 311.333333 236.285038 302"/>
    <g transform="translate(69.137 141)">
      <path fill="#FDB243" d="M23.1481481,0 C23.8148148,32 32.1481481,56.3333333 48.1481481,73 C72.1481481,98 83.1481481,92 92.1481481,103 C101.148148,114 96.1481481,131 79.1481481,131 C62.1481481,131 38.1481481,119 19.1481481,96 C0.148148148,73 2.14814815,60 0.148148148,47 C-1.18518519,38.3333333 6.48148148,22.6666667 23.1481481,0 Z"/>
      <ellipse cx="25.648" cy="93.5" fill="#E29522" rx="5.5" ry="12.5" transform="rotate(-41 25.648 93.5)"/>
      <path fill="#FDD291" d="M76.1481481,131 C67.4814815,126.333333 64.1481481,122.666667 66.1481481,120 C68.1481481,117.333333 73.4814815,118.666667 82.1481481,124 C74.8148148,118.666667 72.4814815,114.333333 75.1481481,111 C77.8148148,107.666667 82.4814815,109 89.1481481,115 C83.1481481,109 80.8148148,105 82.1481481,103 C83.4814815,101 87.4814815,102 94.1481481,106 C98.1481481,112 97.8148148,118 93.1481481,124 C88.4814815,130 82.8148148,132.333333 76.1481481,131 Z"/>
    </g>
    <g transform="translate(136.285 45)">
      <ellipse cx="63" cy="22" fill="#E29522" rx="8" ry="4"/>
      <ellipse cx="10" cy="22" fill="#E29522" rx="8" ry="4"/>
      <rect width="21" height="5" x="25.715" y="20" fill="#1D1D1B" rx="2.5"/>
      <path stroke="#1D1D1B" stroke-linecap="round" stroke-width="4" d="M-4.54747351e-13,9 C0.666666667,3 4,5.68434189e-14 10,5.68434189e-14 C16,5.68434189e-14 19.3333333,3 20,9" transform="rotate(-180 10 4.5)"/>
      <path stroke="#1D1D1B" stroke-linecap="round" stroke-width="4" d="M53,9 C53.6666667,3 57,-1.13686838e-13 63,-1.13686838e-13 C69,-1.13686838e-13 72.3333333,3 73,9" transform="rotate(-180 63 4.5)"/>
    </g>
    <path fill="#072A39" d="M171,137 C187.442829,136.725953 191.854614,134.20378 203.854614,131.20378 C215.854614,128.20378 219.854614,124.20378 223.854614,121.20378 C227.854614,118.20378 230.854614,124.20378 227.854614,127.20378 C224.854614,130.20378 215.854614,137.20378 200.854614,139.20378 C193.340305,140.205688 182.180116,143.49325 170.854614,143.20378 C159.529112,142.91431 141.854614,139.20378 134.854614,136.20378 C127.28058,132.957765 119.854614,128.20378 114.854614,125.20378 C109.854614,122.20378 112.854614,115.20378 117.854614,119.20378 C122.854614,123.20378 134.854614,129.20378 143.854614,132.20378 C152.854614,135.20378 154.557171,137.274047 171,137 Z"/>
    <path fill="#092531" d="M119.285038,116 C108.259499,126.412965 100.592833,134.412965 96.2850383,140 C81.4176774,159.282364 70.2850383,187 68.2850383,203 C63.2015321,243.66805 74.4286847,281.882353 85.4286847,303.882353 C96.4286847,325.882353 95.6173233,323.116914 100.428685,330.882353 C105.240046,338.647792 107.285038,340 111.285038,343 C115.285038,346 109.344531,349.529747 106.285038,348 C103.801843,346.758403 98.1809515,342.469712 94.2850383,337 C85.6296595,324.848181 76.2558891,305.915963 71.4286847,294.882353 C64.4286847,278.882353 60.2850383,251 59.2850383,230 C58.5483542,214.529632 59.8873804,198.420421 67.2850383,178 C69.9292114,170.701051 74.0804562,160.56966 78.2850383,154 C94.2850383,129 102.428685,123.882353 112.285038,114 C118.855941,107.411765 121.189274,108.078431 119.285038,116 Z"/>
    <path fill="#315F74" d="M41.4840208 28.6875C29.4840208 38.6875 20.1506875 49.0208333 13.4840208 59.6875 3.48402082 75.6875 4.48402082 84.6875 8.48402082 86.6875 12.4840208 88.6875 12.4840208 89.6875 16.4840208 90.6875 20.4840208 91.6875 21.4840208 91.6875 25.4840208 80.6875 29.4840208 69.6875 40.4840208 40.6875 43.4840208 35.6875 46.4840208 30.6875 48.4840208 29.6875 46.4840208 28.6875 45.1506875 28.0208333 43.4840208 28.0208333 41.4840208 28.6875zM14.4840208 93.6875C14.4840208 93.6875 6.48402082 91.6875 3.48402082 93.6875.484020823 95.6875-1.51597918 109.6875 1.48402082 120.6875 4.48402082 131.6875 9.48402082 148.6875 14.4840208 149.6875 19.4840208 150.6875 22.4840208 151.6875 22.4840208 143.6875 22.4840208 135.6875 22.4840208 108.6875 22.4840208 101.6875 22.4840208 97.0208333 21.1506875 94.3541667 18.4840208 93.6875 15.8173542 93.6875 14.4840208 93.6875 14.4840208 93.6875zM31.4840208 77.6875C34.7549047 66.9128237 39.4840208 58.6875 41.4840208 55.6875 43.4840208 52.6875 45.4840208 49.6875 51.4840208 52.6875 57.4840208 55.6875 59.4840208 56.6875 62.4840208 57.6875 65.4840208 58.6875 66.4840208 62.6875 62.4840208 75.6875 58.4840208 88.6875 56.4840208 97.6875 55.4840208 108.6875 54.4840208 119.6875 51.4840208 123.6875 47.4840208 123.6875 43.4840208 123.6875 33.4840208 123.6875 29.4840208 123.6875 25.4840208 123.6875 23.4840208 117.6875 24.4840208 111.6875 25.4840208 105.6875 28.213137 88.4621763 31.4840208 77.6875zM38.4840208 125.6875C31.4840208 125.6875 28.4840208 126.6875 26.4840208 127.6875 24.4840208 128.6875 24.4840208 146.6875 28.4840208 161.6875 32.4840208 176.6875 36.4840208 179.6875 41.4840208 178.6875 46.4840208 177.6875 53.4840208 174.6875 57.4840208 173.6875 61.4840208 172.6875 59.4840208 163.6875 57.4840208 153.6875 55.4840208 143.6875 53.4840208 135.6875 52.4840208 129.6875 51.4840208 123.6875 45.4840208 125.6875 38.4840208 125.6875zM63.4840208 18.6875C63.4840208 18.6875 52.4840208 30.6875 49.4840208 38.6875 46.4840208 46.6875 48.4840208 47.6875 52.4840208 49.6875 56.4840208 51.6875 58.4840208 53.6875 63.4840208 54.6875 68.4840208 55.6875 74.4840208 46.6875 80.4840208 38.6875 86.4840208 30.6875 103.484021 11.6875 106.484021 9.6875 109.484021 7.6875 107.484021 4.6875 101.484021 1.6875 95.4840208-1.3125 86.4840208-.3125 78.4840208 4.6875 70.4840208 9.6875 63.4840208 18.6875 63.4840208 18.6875zM49.4840208 178.6875C44.3080403 179.587671 40.4840208 180.6875 39.4840208 182.6875 38.4840208 184.6875 51.4840208 201.6875 57.4840208 208.6875 61.4484326 213.312647 73.6386983 224.066022 78.4840208 226.6875 80.9719261 228.033538 84.1906988 223.320751 83.4840208 220.6875 82.6616915 217.623304 78.1731164 210.065691 75.4840208 204.6875 70.4840208 194.6875 64.4840208 183.6875 62.4840208 178.6875 60.4840208 173.6875 54.6600014 177.787329 49.4840208 178.6875z" transform="translate(3.801 105.313)"/>
  </g>
</svg>
