<?xml version="1.0" encoding="UTF-8" standalone="no"?>
<svg
   xmlns:dc="http://purl.org/dc/elements/1.1/"
   xmlns:cc="http://creativecommons.org/ns#"
   xmlns:rdf="http://www.w3.org/1999/02/22-rdf-syntax-ns#"
   xmlns:svg="http://www.w3.org/2000/svg"
   xmlns="http://www.w3.org/2000/svg"
   xmlns:sodipodi="http://sodipodi.sourceforge.net/DTD/sodipodi-0.dtd"
   xmlns:inkscape="http://www.inkscape.org/namespaces/inkscape"
   width="450.56952"
   height="414.00958"
   version="1.1"
   id="svg116"
   sodipodi:docname="mascot-jetpack-noshadow.svg"
   inkscape:version="0.92.5 (2060ec1f9f, 2020-04-08)">
  <metadata
     id="metadata122">
    <rdf:RDF>
      <cc:Work
         rdf:about="">
        <dc:format>image/svg+xml</dc:format>
        <dc:type
           rdf:resource="http://purl.org/dc/dcmitype/StillImage" />
        <dc:title></dc:title>
      </cc:Work>
    </rdf:RDF>
  </metadata>
  <defs
     id="defs120" />
  <sodipodi:namedview
     pagecolor="#ffffff"
     bordercolor="#666666"
     borderopacity="1"
     objecttolerance="10"
     gridtolerance="10"
     guidetolerance="10"
     inkscape:pageopacity="0"
     inkscape:pageshadow="2"
     inkscape:window-width="1312"
     inkscape:window-height="996"
     id="namedview118"
     showgrid="false"
     fit-margin-top="0"
     fit-margin-left="0"
     fit-margin-right="0"
     fit-margin-bottom="0"
     inkscape:zoom="0.42369838"
     inkscape:cx="-160.49771"
     inkscape:cy="136.40149"
     inkscape:window-x="20"
     inkscape:window-y="40"
     inkscape:window-maximized="0"
     inkscape:current-layer="g114" />
  <g
     transform="translate(-2.11,-17.891919)"
     id="g114"
     style="fill:none;fill-rule:evenodd">
    <path
       d="m 59.21,289.05 c 22.67,-2.52 29.2,1.73 30.12,19.56 A 37.85,37.85 0 0 1 97,306 c 9.94,-1.93 17,5 14,22 -3,17 -15.07,33.09 -33.4,51.64 4.54,-10.93 4.18,-13.85 6.19,-21.5 -7.45,11.28 -10.9,19.11 -28.68,30.18 4.72,-9.47 5.81,-12.56 7.64,-21.68 -5.62,8.6 -23.32,22.82 -37.75,31.36 4.9,-12.91 7.88,-20.59 13.84,-32.89 -15.97,9.03 -30.96,16.2 -36.73,19.61 6.9,-18.2 20.8,-35.8 27.15,-43.98 -9.8,4.16 -12.34,7.44 -24.5,16.34 10.55,-22.04 20.72,-35.14 31.6,-42.4 -8.88,-0.4 -15.6,4.88 -27.57,15.24 14.72,-24.03 24.12,-37.94 50.42,-40.87 z"
       id="path4"
       inkscape:connector-curvature="0"
       style="fill:#ffca00" />
    <path
       d="m 67.88,288.49 c 8.73,-4.2 22.2,4.28 22.12,15.51 a 13.03,13.03 0 0 1 -0.72,4.1 c 10.44,-3.6 21.8,0.1 21.98,10.55 0.24,14 -23.34,31.15 -31.63,36.55 3.46,-6.87 6.98,-9.23 8.3,-15.85 -4.12,6.23 -21.65,17.07 -32.26,23.24 3.05,-8 9.28,-23.86 16.51,-36.4 -14.1,9.55 -32.4,17.25 -38.63,20.87 5.03,-13.2 11.93,-25.76 16.6,-31.7 -7.21,3 -9.2,8.55 -17.49,12.53 7.7,-15.98 22.78,-33.43 35.22,-39.4 z"
       id="path6"
       inkscape:connector-curvature="0"
       style="fill:#ff5d00" />
    <path
       d="m 92.47,309.61 c -9.33,5.17 -11.32,20.38 -16.4,33.34 10.65,-6.07 24.62,-14.28 29.54,-21.87 4.92,-7.59 -3.82,-16.63 -13.14,-11.47 z m -22,-19 c -9.33,5.17 -11.32,20.38 -16.4,33.34 10.65,-6.07 24.62,-14.28 29.54,-21.87 4.92,-7.59 -3.82,-16.63 -13.14,-11.47 z"
       id="path8"
       inkscape:connector-curvature="0"
       style="fill:#ff0000" />
    <g
       transform="rotate(-1,13332.53,-4818.38)"
       id="g22">
      <path
         d="m 59.46,5.58 10.52,7.64 A 8,8 0 0 1 71.75,24.4 L 36.48,72.94 c -2.37,2.75 -21.73,8.87 -23.9,7.36 -2.17,-1.52 -1.7,-20.97 0.44,-24.4 L 48.28,7.34 A 8,8 0 0 1 59.46,5.57 Z"
         id="path10"
         inkscape:connector-curvature="0"
         style="fill:#8f8f8f" />
      <path
         d="m 55.32,4.02 a 5.05,5.05 0 0 1 0.7,6.77 C 36.48,37.34 24.08,53.87 18.82,60.39 11.05,70.03 12.53,79.91 11.91,79.47 9.88,78.07 10.96,59.06 13.12,55.63 L 49.2,4.72 a 4.13,4.13 0 0 1 6.12,-0.7 z"
         id="path12"
         inkscape:connector-curvature="0"
         style="fill:#e5e5e5" />
      <rect
         width="33"
         height="4"
         x="7"
         y="62.459999"
         rx="2"
         transform="rotate(43,23.5,64.46)"
         id="rect14"
         style="fill:#222222" />
      <rect
         width="33"
         height="4"
         x="11.36"
         y="56"
         rx="2"
         transform="rotate(43,27.86,58)"
         id="rect16"
         style="fill:#222222" />
      <rect
         width="11"
         height="4"
         x="9.96"
         y="54.959999"
         rx="2"
         transform="rotate(43,15.46,56.96)"
         id="rect18"
         style="fill:#595959" />
      <rect
         width="11"
         height="4"
         x="14.31"
         y="48.5"
         rx="2"
         transform="rotate(43,19.81,50.5)"
         id="rect20"
         style="fill:#595959" />
    </g>
    <g
       transform="rotate(-1,12218.9,-3687.72)"
       id="g36">
      <path
         d="m 59.46,5.58 10.52,7.64 A 8,8 0 0 1 71.75,24.4 L 36.48,72.94 c -2.37,2.75 -21.73,8.87 -23.9,7.36 -2.17,-1.52 -1.7,-20.97 0.44,-24.4 L 48.28,7.34 A 8,8 0 0 1 59.46,5.57 Z"
         id="path24"
         inkscape:connector-curvature="0"
         style="fill:#8f8f8f" />
      <path
         d="m 55.21,4.28 a 5.05,5.05 0 0 1 0.72,6.77 C 36.38,37.6 23.98,54.13 18.73,60.65 10.95,70.29 12.43,80.17 11.81,79.74 9.78,78.32 10.86,59.32 13.01,55.89 L 49.11,4.98 a 4.13,4.13 0 0 1 6.1,-0.7 z"
         id="path26"
         inkscape:connector-curvature="0"
         style="fill:#e5e5e5" />
      <rect
         width="33"
         height="4"
         x="7"
         y="62.459999"
         rx="2"
         transform="rotate(43,23.5,64.46)"
         id="rect28"
         style="fill:#222222" />
      <rect
         width="10"
         height="4"
         x="10.09"
         y="54.619999"
         rx="2"
         transform="rotate(43,15.09,56.62)"
         id="rect30"
         style="fill:#595959" />
      <rect
         width="33"
         height="4"
         x="11.36"
         y="56"
         rx="2"
         transform="rotate(43,27.86,58)"
         id="rect32"
         style="fill:#222222" />
      <rect
         width="12"
         height="4"
         x="14.18"
         y="48.84"
         rx="2"
         transform="rotate(43,20.18,50.84)"
         id="rect34"
         style="fill:#595959" />
    </g>
    <g
       transform="translate(323,94)"
       id="g48">
      <path
         d="M 7.6,74.1 C 39.58,63.37 59.58,55 67.58,49 c 12,-9 28.03,-32.1 37.08,-44 8.41,-11.05 25.68,-1.87 25,9 C 128.9,26.52 105,62 86.6,75 71.15,85.9 33,100 8,103 -1.4,104.13 -1.54,94.5 7.6,74.1 Z"
         id="path38"
         inkscape:connector-curvature="0"
         style="fill:#fdb243" />
      <path
         d="m 93,64 c -1.78,-2.46 -4.41,-0.06 -10,4 -5.58,4.06 -11.4,6.39 -9.61,8.85 1.78,2.45 7.03,2.2 12.61,-1.85 5.59,-4.06 8.79,-8.54 7,-11 z"
         id="path40"
         inkscape:connector-curvature="0"
         style="fill:#e29522" />
      <rect
         width="9"
         height="7"
         x="92"
         y="3"
         rx="3.5"
         transform="rotate(33,96.5,6.5)"
         id="rect42"
         style="fill:#454545" />
      <rect
         width="37"
         height="13"
         x="92.760002"
         y="9.8199997"
         rx="6.5"
         transform="rotate(33,111.26,16.32)"
         id="rect44"
         style="fill:#8f8f8f" />
      <path
         d="m 104.77,3 c -4.67,3.33 -5,6.67 -1,10 4,3.33 9.67,3.67 17,1 C 118.92,4.67 116.33,0 113,0 c -3.33,0 -6.08,1 -8.23,3 z"
         id="path46"
         inkscape:connector-curvature="0"
         style="fill:#fdb243" />
    </g>
    <g
       id="g112">
      <path
         d="m 260.35,96.53 c -24.97,-17.69 -55.8,-19.74 -92.5,-6.16 -22.52,8.34 -43.56,20.86 -55.66,36.52 -17.46,22.61 -20.5,51.53 -17.82,81.83 4.54,51.27 24.2,90.68 73.43,130.11 32.8,26.29 76.02,-11.76 129.63,-114.14 12.22,-53.67 10.1,-87.45 -6.33,-101.34 -16.44,-13.88 -26.69,-22.83 -30.75,-26.82 z"
         id="path50"
         inkscape:connector-curvature="0"
         style="fill:#193a49" />
      <g
         transform="rotate(24,-556.57,683.45)"
         id="g60">
        <path
           d="m 0,28 v 98 c 6.67,6 15,9 25,9 10,0 19,-3 27,-9 V 0 Z"
           id="path52"
           inkscape:connector-curvature="0"
           style="fill:#fdb243" />
        <path
           d="m 0,126 c 0.67,-10.67 3.67,-16 9,-16 5.33,0 8.33,6 9,18 0,-12 3,-18 9,-18 6,0 9,5.67 9,17 0,-12.67 2.67,-19 8,-19 5.33,0 8,6 8,18 -8,6.67 -16.67,10 -26,10 -9.33,0 -18,-3.33 -26,-10 z"
           id="path54"
           inkscape:connector-curvature="0"
           style="fill:#fdd291" />
        <ellipse
           cx="26.5"
           cy="78"
           rx="18.5"
           ry="10"
           id="ellipse56"
           style="fill:#e29522" />
        <path
           d="M 0.63,79 V 69 l 26,-14 z"
           id="path58"
           inkscape:connector-curvature="0"
           style="fill:#e29522" />
      </g>
      <g
         transform="rotate(24,-647.1,484.74)"
         id="g70">
        <path
           d="m 0,0 v 114 c 7.33,5.33 15,8 23,8 8,0 17,-2 27,-6 V 22 Z"
           id="path62"
           inkscape:connector-curvature="0"
           style="fill:#fdb243" />
        <path
           d="m 0,114 c 0,-10.67 2.67,-16 8,-16 5.33,0 8.33,6 9,18 0,-12 3,-18 9,-18 6,0 9,5.67 9,17 0,-12.67 2.67,-19 8,-19 5.33,0 7.67,6.67 7,20 -7.33,4.67 -15.67,7 -25,7 -9.33,0 -17.67,-3 -25,-9 z"
           id="path64"
           inkscape:connector-curvature="0"
           style="fill:#fdd291" />
        <ellipse
           cx="25.5"
           cy="65"
           rx="18.5"
           ry="10"
           id="ellipse66"
           style="fill:#e29522" />
        <path
           d="M 0.71,0.95 1,12.58 c 4.9,4.57 12.34,8.19 22.34,10.85 10,2.67 18.9,3.81 26.7,3.44 l -0.32,-4.92 a 260.58,260.58 0 0 1 -25,-7 c -5.26,-1.72 -8.52,-8.41 -13,-11 -2.4,-1.39 -6.06,-2.39 -11,-3 z"
           id="path68"
           inkscape:connector-curvature="0"
           style="fill:#e29522" />
      </g>
      <path
         d="m 235.55,132.56 c 9.7,-16.85 21.45,-40.8 35.28,-71.87 20.75,-46.59 49.28,-49.2 77.2,-35.69 27.9,13.53 30.43,39.82 14.66,77.69 -15.76,37.86 -22.47,48 -30.3,72.98 -7.84,24.97 -59.2,7.58 -82.44,-11.53 -15.5,-12.73 -20.3,-23.26 -14.4,-31.58 z"
         id="path72"
         inkscape:connector-curvature="0"
         style="fill:#fdb243" />
      <path
         d="m 238.41,106.46 c 8.52,16.93 25.87,31.23 52.06,42.89 26.2,11.66 43.65,15.05 52.39,10.18 8.3,25.6 8.05,49.93 -0.76,73 -13.22,34.62 -53.38,107.6 -98.26,114.98 -44.88,7.38 -64.89,10.52 -87.91,-23.82 -23.03,-34.33 -27.66,-97.7 -2.85,-143.57 16.53,-30.58 44.98,-55.14 85.33,-73.66 z"
         id="path74"
         inkscape:connector-curvature="0"
         style="fill:#9cc0d0" />
      <g
         id="g80"
         style="fill:#81aec2">
        <path
           d="m 160,180 c -6,10.67 -11,24.33 -15,41 -6,25 -3,66 0,79 3,13 9,26 14,31 1.01,1.01 15.82,14.9 19,15 3.23,0.1 -4,-6 -13,-20 -9,-14 -15,-41 -14,-65 1,-24 5.6,-47.82 14,-73 3,-9 20,-34 13,-36 -2.67,-2 -8.67,7.33 -18,28 z"
           id="path76"
           inkscape:connector-curvature="0" />
        <path
           d="m 158.14,281.24 c -7.2,-6.4 -12,-12 -16,-14 -1.5,-0.75 -1.4,6.94 -1.14,8.76 0.75,5.27 -1.14,2.2 10,10 10,7 22.94,9.65 22,7 -0.69,-1.95 -6,-3.88 -14.86,-11.76 z M 160,212 c -6.5,-7.11 -8.93,-14.17 -11.46,-13.4 -4.54,1.4 -7.08,8.38 6.46,17.4 15,10 13,4.76 5,-4 z"
           id="path78"
           inkscape:connector-curvature="0" />
      </g>
      <g
         id="g84"
         style="stroke:#dae0e2;stroke-width:4;stroke-linecap:round">
        <path
           d="m 180,151.6 c 19.82,22.7 47.22,41.47 82.2,56.31 35,14.85 61.96,20.65 80.92,17.42 M 148.3,193.32 c 16.09,26.14 43.32,47.75 81.69,64.83 38.37,17.08 67,23.26 85.88,18.54 M 139.72,261.75 c 21.24,21.13 45.1,37.22 71.55,48.27 26.46,11.05 49.5,15.84 69.14,14.36"
           id="path82"
           inkscape:connector-curvature="0" />
      </g>
      <g
         transform="rotate(24,31.7,715.07)"
         id="g94">
        <ellipse
           cx="63"
           cy="22"
           rx="8"
           ry="4"
           id="ellipse86"
           style="fill:#e29522" />
        <ellipse
           cx="10"
           cy="22"
           rx="8"
           ry="4"
           id="ellipse88"
           style="fill:#e29522" />
        <path
           d="m 26.71,23.62 c 0,-5 6,0.33 10,0 4,-0.34 10,-6 10,0 0,6 -3,11.33 -10,11.33 -7,0 -10,-6.33 -10,-11.33 z"
           id="path90"
           inkscape:connector-curvature="0"
           style="fill:#1d1d1b" />
        <path
           d="M 0,9 C 0.67,3 4,0 10,0 c 6,0 9.33,3 10,9 m 33,0 c 0.67,-6 4,-9 10,-9 6,0 9.33,3 10,9"
           id="path92"
           inkscape:connector-curvature="0"
           style="stroke:#1d1d1b;stroke-width:4;stroke-linecap:round" />
      </g>
      <path
         d="m 287.66,147.22 c 15.13,6.44 20.4,5.8 32.59,7.94 12.18,2.14 17.46,0.12 22.34,-1 4.87,-1.11 5.17,5.6 1.21,7.11 -3.96,1.52 -14.4,3.22 -29.55,-0.02 -6.3,-1.35 -18.8,-3.68 -29.03,-8.55 -10.23,-4.87 -24.86,-15.45 -30.04,-21.03 -5.6,-6.05 -10.45,-13.41 -13.8,-18.19 -3.34,-4.77 2.24,-9.95 5.19,-4.26 2.94,5.69 11.46,16.05 18.46,22.45 7,6.4 7.5,9.12 22.63,15.55 z"
         id="path96"
         inkscape:connector-curvature="0"
         style="fill:#072a39" />
      <path
         d="m 249.18,106.88 c -14.31,5.03 -24.57,9.22 -30.78,12.57 -21.42,11.57 -42.87,32.36 -51.2,46.16 -21.19,35.09 -26.47,74.56 -25.37,99.14 1.1,24.57 1.48,21.71 2.72,30.76 1.24,9.05 2.55,11.12 4.99,15.49 2.43,4.37 -4.43,5.17 -6.6,2.53 -1.77,-2.14 -5.16,-8.35 -6.5,-14.93 -2.96,-14.62 -3.82,-35.73 -3.74,-47.77 0.11,-17.46 7.67,-44.62 15.3,-64.21 5.61,-14.44 13.39,-28.6 28.45,-44.25 5.39,-5.6 13.3,-13.16 19.81,-17.45 24.79,-16.34 34.31,-17.7 47.33,-22.72 8.69,-3.34 10.55,-1.79 5.59,4.68 z"
         id="path98"
         inkscape:connector-curvature="0"
         style="fill:#092531" />
      <path
         d="m 174.25,93.22 c -15.03,4.26 -27.76,9.9 -38.19,16.93 -15.64,10.55 -18.39,19.18 -15.55,22.64 2.84,3.45 2.44,4.36 5.69,6.9 3.24,2.54 4.16,2.95 12.28,-5.47 8.13,-8.42 29.98,-30.44 34.75,-33.79 4.78,-3.35 7.01,-3.45 5.59,-5.17 -0.95,-1.16 -2.47,-1.83 -4.57,-2.04 z m -51.1,48.4 c 0,0 -6.5,-5.08 -10.05,-4.47 -3.55,0.6 -11.08,12.58 -12.81,23.85 -1.73,11.27 -4.08,28.83 0.08,31.78 4.16,2.95 6.5,5.08 9.75,-2.23 l 17.08,-38.37 c 1.9,-4.26 1.77,-7.24 -0.4,-8.93 z m 22.04,-7.7 c 7.37,-8.51 15.03,-14.1 18.08,-16.03 3.05,-1.93 6.1,-3.86 10.36,1.32 4.26,5.19 5.68,6.91 8.01,9.05 2.33,2.13 1.62,6.2 -7.32,16.44 -8.94,10.25 -14.43,17.66 -19.82,27.3 -5.39,9.64 -9.75,12.08 -13.4,10.45 l -16.45,-7.32 c -3.65,-1.63 -3.04,-7.92 0.31,-13 3.36,-5.07 12.86,-19.7 20.23,-28.21 z m -13.13,46.7 c -6.4,-2.85 -9.54,-3.16 -11.78,-3.06 -2.23,0.1 -9.55,16.55 -12,31.88 -2.45,15.33 -0.01,19.7 4.96,20.81 4.98,1.12 12.6,1.23 16.65,1.94 4.06,0.72 5.9,-8.32 8.14,-18.27 2.24,-9.95 3.66,-18.07 5.19,-23.96 1.53,-5.88 -4.77,-6.5 -11.16,-9.34 z m 66.36,-87.59 c 0,0 -14.93,6.5 -20.93,12.58 -6,6.09 -4.57,7.82 -1.73,11.27 2.84,3.45 3.85,6.1 8.01,9.04 4.17,2.95 13.3,-2.83 22.04,-7.7 8.74,-4.87 32,-15.31 35.55,-15.92 3.55,-0.6 2.95,-4.16 -1.31,-9.34 -4.26,-5.18 -12.9,-7.93 -22.24,-6.61 -9.34,1.31 -19.4,6.68 -19.4,6.68 z m -77.87,140.48 c -5.1,-1.29 -9.04,-1.84 -10.76,-0.42 -1.73,1.42 3.23,22.24 5.87,31.08 1.74,5.84 8.5,20.62 11.86,24.98 1.72,2.24 6.58,-0.75 7,-3.44 0.5,-3.14 -0.52,-11.87 -0.8,-17.88 -0.5,-11.16 -1.5,-23.65 -1.3,-29.03 0.21,-5.39 -6.78,-4 -11.87,-5.3 z"
         id="path100"
         inkscape:connector-curvature="0"
         style="fill:#315f74" />
      <g
         transform="translate(75.41,91.83)"
         id="g110">
        <rect
           width="10"
           height="5"
           x="28.77"
           y="93.389999"
           rx="2.5"
           transform="rotate(37,33.77,95.89)"
           id="rect102"
           style="fill:#363636" />
        <rect
           width="40"
           height="13"
           y="77.769997"
           rx="6.5"
           transform="rotate(37,20,84.27)"
           id="rect104"
           x="0"
           style="fill:#8f8f8f" />
        <path
           d="m 111.59,42.17 a 205.56,205.56 0 0 1 -19,12 c -4.73,2.67 -19.97,3.9 -26.6,6.51 -19.9,7.88 -28.14,27.43 -37.75,35.65 -9.6,8.23 -25.48,-4.6 -19.66,-20.58 5.81,-15.97 25.3,-34.42 53.4,-44.41 28.12,-9.99 42.31,-6.36 50.85,-2.01 6.2,3.16 5.8,7.44 -1.24,12.84 z"
           id="path106"
           inkscape:connector-curvature="0"
           style="fill:#fdb243" />
        <path
           d="m 9.6,72.93 c 7.35,-6.55 11.94,-8.42 13.76,-5.63 1.82,2.79 -1.26,7.34 -9.23,13.66 7.52,-5.06 12.39,-5.77 14.6,-2.13 2.23,3.65 -0.62,7.58 -8.54,11.79 7.7,-3.59 12.25,-4.41 13.67,-2.47 1.43,1.93 -0.88,5.35 -6.92,10.25 -7,1.7 -12.53,-0.66 -16.57,-7.1 C 6.32,84.86 6.07,78.74 9.6,72.93 Z"
           id="path108"
           inkscape:connector-curvature="0"
           style="fill:#fdd291" />
      </g>
    </g>
  </g>
</svg>
