<svg id="Layer_1" data-name="Layer 1" xmlns="http://www.w3.org/2000/svg" viewBox="0 0 294.17 452.05"><defs><style>.cls-1{fill:#fdb243;}.cls-1,.cls-10,.cls-11,.cls-12,.cls-2,.cls-3,.cls-5,.cls-6,.cls-7,.cls-9{fill-rule:evenodd;}.cls-2{fill:#193a49;}.cls-3{fill:#fdd291;}.cls-4,.cls-5{fill:#e29522;}.cls-6{fill:#9cc0d0;}.cls-7{fill:#81aec2;}.cls-8{fill:none;stroke:#dae0e2;stroke-linecap:round;stroke-width:4px;}.cls-9{fill:#1d1d1b;}.cls-10{fill:#315f74;}.cls-11{fill:#072a39;}.cls-12{fill:#092531;}</style></defs><title>mascor-error-noshadow</title><path class="cls-1" d="M191.32,163.88q31.14,22.6,40.71,56.66c9.58,34.06,18.53,51.83,34.57,60s25-2,27.4-11.54-21.79-33.7-35.4-66.46-26.44-60.86-38-69Q209,125.41,191.32,163.88Z" transform="translate(0 -0.95)"/><path class="cls-2" d="M125.29,102q-45-9-87,32C21.1,150.78,7,170.77,2.29,190c-6.76,27.76,2.23,55.42,17,82,25,45,59,73,120,89q61,16,72-157-16-81-47-90T125.29,102Z" transform="translate(0 -0.95)"/><path class="cls-1" d="M174.29,345v98q10,9,25,9a43.88,43.88,0,0,0,27-9V317Z" transform="translate(0 -0.95)"/><path class="cls-3" d="M174.29,443q1-16,9-16t9,18q0-18,9-18t9,17q0-19,8-19t8,18q-12,10-26,10T174.29,443Z" transform="translate(0 -0.95)"/><ellipse class="cls-4" cx="200.79" cy="394.05" rx="18.5" ry="10"/><polygon class="cls-5" points="174.28 369.05 174.28 359.05 200.28 345.05 174.28 369.05"/><path class="cls-1" d="M101.29,330V444q11,8,23,8t27-6V352Z" transform="translate(0 -0.95)"/><path class="cls-3" d="M101.29,444q0-16,8-16t9,18q0-18,9-18t9,17q0-19,8-19t7,20a45.56,45.56,0,0,1-25,7A38.39,38.39,0,0,1,101.29,444Z" transform="translate(0 -0.95)"/><ellipse class="cls-4" cx="126.79" cy="394.05" rx="18.5" ry="10"/><path class="cls-5" d="M101.29,335v22q5,5,20,9a156.65,156.65,0,0,0,30,5v-7q-12.31-2.06-26-10A103.51,103.51,0,0,1,101.29,335Z" transform="translate(0 -0.95)"/><path class="cls-1" d="M117.29,145q3-29,3-80c0-51,25-65,56-64s44,24,45,65-1,53,2,79-51,31-80,23Q114.28,160,117.29,145Z" transform="translate(0 -0.95)"/><path class="cls-6" d="M109.29,120q22,18,65,18t52-12q27,30,29,67c2,37-5,120-43,145s-55,36-90,14-65-78-61-130Q65.28,170,109.29,120Z" transform="translate(0 -0.95)"/><path class="cls-7" d="M139.29,354c-32-11-52-89-58-110q-6-21-12-58a75.35,75.35,0,0,0-8,29c-1,15,1,49,12,76s29,45,36,51,1,10,27,18S150.29,357,139.29,354Z" transform="translate(0 -0.95)"/><path class="cls-8" d="M74.29,185q41,19,98,18t81-17m-191,50q38,26,101,26t86-18m-167,58a222.17,222.17,0,0,0,85,15q43-1,69-15" transform="translate(0 -0.95)"/><ellipse class="cls-4" cx="199.29" cy="66.05" rx="8" ry="4"/><ellipse class="cls-4" cx="146.29" cy="66.05" rx="8" ry="4"/><path class="cls-9" d="M184,75c-1.19,1.42-6.37-1-11-1s-8.62,2.52-10,1c-2.79-3.06,0-12,10.08-12S186.37,72.18,184,75Z" transform="translate(0 -0.95)"/><path class="cls-9" d="M194.42,43.14,205.26,54A1.61,1.61,0,1,1,203,56.26L192.14,45.42a1.61,1.61,0,1,1,2.28-2.28Z" transform="translate(0 -0.95)"/><path class="cls-9" d="M192.14,54,203,43.14a1.61,1.61,0,1,1,2.28,2.28L194.42,56.26A1.61,1.61,0,1,1,192.14,54Z" transform="translate(0 -0.95)"/><path class="cls-9" d="M142.42,43.14,153.26,54A1.61,1.61,0,1,1,151,56.26L140.14,45.42a1.61,1.61,0,1,1,2.28-2.28Z" transform="translate(0 -0.95)"/><path class="cls-9" d="M140.14,54,151,43.14a1.61,1.61,0,1,1,2.28,2.28L142.42,56.26A1.61,1.61,0,1,1,140.14,54Z" transform="translate(0 -0.95)"/><path class="cls-10" d="M45.29,134q-18,15-28,31c-10,16-9,25-5,27s4,3,8,4,5,1,9-10,15-40,18-45,5-6,3-7A6.41,6.41,0,0,0,45.29,134Zm-27,65s-8-2-11,0-5,16-2,27,8,28,13,29,8,2,8-6V207q0-7-4-8Zm17-16a89.71,89.71,0,0,1,10-22c2-3,4-6,10-3s8,4,11,5,4,5,0,18-6,22-7,33-4,15-8,15h-18c-4,0-6-6-5-12S32,193.78,35.29,183Zm7,48c-7,0-10,1-12,2s-2,19,2,34,8,18,13,17,12-4,16-5,2-10,0-20-4-18-5-24S49.29,231,42.29,231Zm25-107s-11,12-14,20-1,9,3,11,6,4,11,5,11-8,17-16,23-27,26-29,1-5-5-8-15-2-23,3S67.29,124,67.29,124Zm-14,160c-5.18.9-9,2-10,4s12,19,18,26c4,4.63,16.15,15.38,21,18,2.48,1.35,5.7-3.37,5-6-.83-3.06-5.32-10.62-8-16-5-10-11-21-13-26S58.46,283.1,53.29,284Z" transform="translate(0 -0.95)"/><path class="cls-11" d="M170.85,137.2c16.45-.27,21-3,33-6s16-7,20-10,7,3,4,6-12,10-27,12c-7.51,1-18.67,4.29-30,4s-29-4-36-7c-7.57-3.24-15-8-20-11s-2-10,3-6,17,10,26,13S154.41,137.48,170.85,137.2Z" transform="translate(0 -0.95)"/><path class="cls-12" d="M119.29,116q-16.55,15.62-23,24c-14.87,19.28-26,47-28,63-5.09,40.67,6.14,78.88,17.14,100.88s10.19,19.24,15,27S107.29,340,111.29,343s-2,6.53-5,5c-2.49-1.24-8.11-5.53-12-11-8.66-12.15-18-31.08-22.86-42.12-7-16-11.14-43.88-12.14-64.88-.74-15.47.6-31.58,8-52,2.64-7.3,6.79-17.43,11-24,16-25,24.14-30.12,34-40Q122.15,104.12,119.29,116Z" transform="translate(0 -0.95)"/><path class="cls-1" d="M86.67,153.61Q91,202,96,224c5,22,18.47,48.75,21.36,62.44s-19.35,19.76-27,12.4S75.6,271.54,69,242s.83-51.09,5.81-63.26A277.75,277.75,0,0,1,86.67,153.61Z" transform="translate(0 -0.95)"/><ellipse class="cls-4" cx="79.24" cy="235.07" rx="5.5" ry="12.5" transform="translate(-43.4 18.49) rotate(-11)"/><path class="cls-3" d="M90.47,299.36q-8.82-11.83-4.41-14.19t12.81,10.39q-6.59-11.91-.85-14.74t11,9.54q-4.36-12-1.28-13.84t9.61,7.79Q119,295,108.84,300.2T90.47,299.36Z" transform="translate(0 -0.95)"/></svg>