<svg xmlns="http://www.w3.org/2000/svg" width="451" height="557"><g fill="none" fill-rule="evenodd" transform="translate(-2 -17)"><ellipse cx="140.5" cy="557" fill="#E0DAD4" rx="96.5" ry="17"/><path fill="#FFCA00" d="M59.21 289.05c22.67-2.52 29.2 1.73 30.12 19.56A37.85 37.85 0 0197 306c9.94-1.93 17 5 14 22s-15.07 33.09-33.4 51.64c4.54-10.93 4.18-13.85 6.19-21.5-7.45 11.28-10.9 19.11-28.68 30.18 4.72-9.47 5.81-12.56 7.64-21.68-5.62 8.6-23.32 22.82-37.75 31.36 4.9-12.91 7.88-20.59 13.84-32.89-15.97 9.03-30.96 16.2-36.73 19.61 6.9-18.2 20.8-35.8 27.15-43.98-9.8 4.16-12.34 7.44-24.5 16.34 10.55-22.04 20.72-35.14 31.6-42.4-8.88-.4-15.6 4.88-27.57 15.24 14.72-24.03 24.12-37.94 50.42-40.87z"/><path fill="#FF5D00" d="M67.88 288.49c8.73-4.2 22.2 4.28 22.12 15.51a13.03 13.03 0 01-.72 4.1c10.44-3.6 21.8.1 21.98 10.55.24 14-23.34 31.15-31.63 36.55 3.46-6.87 6.98-9.23 8.3-15.85-4.12 6.23-21.65 17.07-32.26 23.24 3.05-8 9.28-23.86 16.51-36.4-14.1 9.55-32.4 17.25-38.63 20.87 5.03-13.2 11.93-25.76 16.6-31.7-7.21 3-9.2 8.55-17.49 12.53 7.7-15.98 22.78-33.43 35.22-39.4z"/><path fill="red" d="M92.47 309.61c-9.33 5.17-11.32 20.38-16.4 33.34 10.65-6.07 24.62-14.28 29.54-21.87 4.92-7.59-3.82-16.63-13.14-11.47zM70.47 290.61c-9.33 5.17-11.32 20.38-16.4 33.34 10.65-6.07 24.62-14.28 29.54-21.87 4.92-7.59-3.82-16.63-13.14-11.47z"/><g transform="rotate(-1 13332.53 -4818.38)"><path fill="#8F8F8F" d="M59.46 5.58l10.52 7.64a8 8 0 011.77 11.18L36.48 72.94c-2.37 2.75-21.73 8.87-23.9 7.36-2.17-1.52-1.7-20.97.44-24.4L48.28 7.34a8 8 0 0111.18-1.77z"/><path fill="#E5E5E5" d="M55.32 4.02a5.05 5.05 0 01.7 6.77c-19.54 26.55-31.94 43.08-37.2 49.6-7.77 9.64-6.29 19.52-6.91 19.08-2.03-1.4-.95-20.41 1.21-23.84L49.2 4.72a4.13 4.13 0 016.12-.7z"/><rect width="33" height="4" x="7" y="62.46" fill="#222" rx="2" transform="rotate(43 23.5 64.46)"/><rect width="33" height="4" x="11.36" y="56" fill="#222" rx="2" transform="rotate(43 27.86 58)"/><rect width="11" height="4" x="9.96" y="54.96" fill="#595959" rx="2" transform="rotate(43 15.46 56.96)"/><rect width="11" height="4" x="14.31" y="48.5" fill="#595959" rx="2" transform="rotate(43 19.81 50.5)"/></g><g transform="rotate(-1 12218.9 -3687.72)"><path fill="#8F8F8F" d="M59.46 5.58l10.52 7.64a8 8 0 011.77 11.18L36.48 72.94c-2.37 2.75-21.73 8.87-23.9 7.36-2.17-1.52-1.7-20.97.44-24.4L48.28 7.34a8 8 0 0111.18-1.77z"/><path fill="#E5E5E5" d="M55.21 4.28a5.05 5.05 0 01.72 6.77c-19.55 26.55-31.95 43.08-37.2 49.6-7.78 9.64-6.3 19.52-6.92 19.09-2.03-1.42-.95-20.42 1.2-23.85l36.1-50.91a4.13 4.13 0 016.1-.7z"/><rect width="33" height="4" x="7" y="62.46" fill="#222" rx="2" transform="rotate(43 23.5 64.46)"/><rect width="10" height="4" x="10.09" y="54.62" fill="#595959" rx="2" transform="rotate(43 15.09 56.62)"/><rect width="33" height="4" x="11.36" y="56" fill="#222" rx="2" transform="rotate(43 27.86 58)"/><rect width="12" height="4" x="14.18" y="48.84" fill="#595959" rx="2" transform="rotate(43 20.18 50.84)"/></g><g transform="translate(323 94)"><path fill="#FDB243" d="M7.6 74.1C39.58 63.37 59.58 55 67.58 49c12-9 28.03-32.1 37.08-44 8.41-11.05 25.68-1.87 25 9C128.9 26.52 105 62 86.6 75 71.15 85.9 33 100 8 103c-9.4 1.13-9.54-8.5-.4-28.9z"/><path fill="#E29522" d="M93 64c-1.78-2.46-4.41-.06-10 4-5.58 4.06-11.4 6.39-9.61 8.85C75.17 79.3 80.42 79.05 86 75c5.59-4.06 8.79-8.54 7-11z"/><rect width="9" height="7" x="92" y="3" fill="#454545" rx="3.5" transform="rotate(33 96.5 6.5)"/><rect width="37" height="13" x="92.76" y="9.82" fill="#8F8F8F" rx="6.5" transform="rotate(33 111.26 16.32)"/><path fill="#FDB243" d="M104.77 3c-4.67 3.33-5 6.67-1 10s9.67 3.67 17 1c-1.85-9.33-4.44-14-7.77-14-3.33 0-6.08 1-8.23 3z"/></g><g><path fill="#193A49" d="M260.35 96.53c-24.97-17.69-55.8-19.74-92.5-6.16-22.52 8.34-43.56 20.86-55.66 36.52-17.46 22.61-20.5 51.53-17.82 81.83 4.54 51.27 24.2 90.68 73.43 130.11 32.8 26.29 76.02-11.76 129.63-114.14 12.22-53.67 10.1-87.45-6.33-101.34-16.44-13.88-26.69-22.83-30.75-26.82z"/><g transform="rotate(24 -556.57 683.45)"><path fill="#FDB243" d="M0 28v98c6.67 6 15 9 25 9s19-3 27-9V0L0 28z"/><path fill="#FDD291" d="M0 126c.67-10.67 3.67-16 9-16s8.33 6 9 18c0-12 3-18 9-18s9 5.67 9 17c0-12.67 2.67-19 8-19s8 6 8 18c-8 6.67-16.67 10-26 10-9.33 0-18-3.33-26-10z"/><ellipse cx="26.5" cy="78" fill="#E29522" rx="18.5" ry="10"/><path fill="#E29522" d="M.63 79V69l26-14z"/></g><g transform="rotate(24 -647.1 484.74)"><path fill="#FDB243" d="M0 0v114c7.33 5.33 15 8 23 8s17-2 27-6V22L0 0z"/><path fill="#FDD291" d="M0 114c0-10.67 2.67-16 8-16s8.33 6 9 18c0-12 3-18 9-18s9 5.67 9 17c0-12.67 2.67-19 8-19s7.67 6.67 7 20c-7.33 4.67-15.67 7-25 7s-17.67-3-25-9z"/><ellipse cx="25.5" cy="65" fill="#E29522" rx="18.5" ry="10"/><path fill="#E29522" d="M.71.95L1 12.58c4.9 4.57 12.34 8.19 22.34 10.85 10 2.67 18.9 3.81 26.7 3.44l-.32-4.92a260.58 260.58 0 01-25-7c-5.26-1.72-8.52-8.41-13-11-2.4-1.39-6.06-2.39-11-3z"/></g><path fill="#FDB243" d="M235.55 132.56c9.7-16.85 21.45-40.8 35.28-71.87 20.75-46.59 49.28-49.2 77.2-35.69 27.9 13.53 30.43 39.82 14.66 77.69-15.76 37.86-22.47 48-30.3 72.98-7.84 24.97-59.2 7.58-82.44-11.53-15.5-12.73-20.3-23.26-14.4-31.58z"/><path fill="#9CC0D0" d="M238.41 106.46c8.52 16.93 25.87 31.23 52.06 42.89 26.2 11.66 43.65 15.05 52.39 10.18 8.3 25.6 8.05 49.93-.76 73-13.22 34.62-53.38 107.6-98.26 114.98-44.88 7.38-64.89 10.52-87.91-23.82-23.03-34.33-27.66-97.7-2.85-143.57 16.53-30.58 44.98-55.14 85.33-73.66z"/><g fill="#81AEC2"><path d="M160 180c-6 10.67-11 24.33-15 41-6 25-3 66 0 79s9 26 14 31c1.01 1.01 15.82 14.9 19 15 3.23.1-4-6-13-20s-15-41-14-65 5.6-47.82 14-73c3-9 20-34 13-36-2.67-2-8.67 7.33-18 28z"/><path d="M158.14 281.24c-7.2-6.4-12-12-16-14-1.5-.75-1.4 6.94-1.14 8.76.75 5.27-1.14 2.2 10 10 10 7 22.94 9.65 22 7-.69-1.95-6-3.88-14.86-11.76zM160 212c-6.5-7.11-8.93-14.17-11.46-13.4-4.54 1.4-7.08 8.38 6.46 17.4 15 10 13 4.76 5-4z"/></g><g stroke="#DAE0E2" stroke-linecap="round" stroke-width="4"><path d="M180 151.6c19.82 22.7 47.22 41.47 82.2 56.31 35 14.85 61.96 20.65 80.92 17.42M148.3 193.32c16.09 26.14 43.32 47.75 81.69 64.83s67 23.26 85.88 18.54M139.72 261.75c21.24 21.13 45.1 37.22 71.55 48.27 26.46 11.05 49.5 15.84 69.14 14.36"/></g><g transform="rotate(24 31.7 715.07)"><ellipse cx="63" cy="22" fill="#E29522" rx="8" ry="4"/><ellipse cx="10" cy="22" fill="#E29522" rx="8" ry="4"/><path fill="#1D1D1B" d="M26.71 23.62c0-5 6 .33 10 0 4-.34 10-6 10 0s-3 11.33-10 11.33-10-6.33-10-11.33z"/><path stroke="#1D1D1B" stroke-linecap="round" stroke-width="4" d="M0 9c.67-6 4-9 10-9s9.33 3 10 9m33 0c.67-6 4-9 10-9s9.33 3 10 9"/></g><path fill="#072A39" d="M287.66 147.22c15.13 6.44 20.4 5.8 32.59 7.94 12.18 2.14 17.46.12 22.34-1 4.87-1.11 5.17 5.6 1.21 7.11-3.96 1.52-14.4 3.22-29.55-.02-6.3-1.35-18.8-3.68-29.03-8.55-10.23-4.87-24.86-15.45-30.04-21.03-5.6-6.05-10.45-13.41-13.8-18.19-3.34-4.77 2.24-9.95 5.19-4.26 2.94 5.69 11.46 16.05 18.46 22.45 7 6.4 7.5 9.12 22.63 15.55z"/><path fill="#092531" d="M249.18 106.88c-14.31 5.03-24.57 9.22-30.78 12.57-21.42 11.57-42.87 32.36-51.2 46.16-21.19 35.09-26.47 74.56-25.37 99.14 1.1 24.57 1.48 21.71 2.72 30.76 1.24 9.05 2.55 11.12 4.99 15.49 2.43 4.37-4.43 5.17-6.6 2.53-1.77-2.14-5.16-8.35-6.5-14.93-2.96-14.62-3.82-35.73-3.74-47.77.11-17.46 7.67-44.62 15.3-64.21 5.61-14.44 13.39-28.6 28.45-44.25 5.39-5.6 13.3-13.16 19.81-17.45 24.79-16.34 34.31-17.7 47.33-22.72 8.69-3.34 10.55-1.79 5.59 4.68z"/><path fill="#315F74" d="M174.25 93.22c-15.03 4.26-27.76 9.9-38.19 16.93-15.64 10.55-18.39 19.18-15.55 22.64 2.84 3.45 2.44 4.36 5.69 6.9 3.24 2.54 4.16 2.95 12.28-5.47 8.13-8.42 29.98-30.44 34.75-33.79 4.78-3.35 7.01-3.45 5.59-5.17-.95-1.16-2.47-1.83-4.57-2.04zm-51.1 48.4s-6.5-5.08-10.05-4.47c-3.55.6-11.08 12.58-12.81 23.85-1.73 11.27-4.08 28.83.08 31.78 4.16 2.95 6.5 5.08 9.75-2.23l17.08-38.37c1.9-4.26 1.77-7.24-.4-8.93l-3.65-1.63zm22.04-7.7c7.37-8.51 15.03-14.1 18.08-16.03 3.05-1.93 6.1-3.86 10.36 1.32 4.26 5.19 5.68 6.91 8.01 9.05 2.33 2.13 1.62 6.2-7.32 16.44-8.94 10.25-14.43 17.66-19.82 27.3-5.39 9.64-9.75 12.08-13.4 10.45l-16.45-7.32c-3.65-1.63-3.04-7.92.31-13 3.36-5.07 12.86-19.7 20.23-28.21zm-13.13 46.7c-6.4-2.85-9.54-3.16-11.78-3.06-2.23.1-9.55 16.55-12 31.88-2.45 15.33-.01 19.7 4.96 20.81 4.98 1.12 12.6 1.23 16.65 1.94 4.06.72 5.9-8.32 8.14-18.27s3.66-18.07 5.19-23.96c1.53-5.88-4.77-6.5-11.16-9.34zm66.36-87.59s-14.93 6.5-20.93 12.58c-6 6.09-4.57 7.82-1.73 11.27 2.84 3.45 3.85 6.1 8.01 9.04 4.17 2.95 13.3-2.83 22.04-7.7 8.74-4.87 32-15.31 35.55-15.92 3.55-.6 2.95-4.16-1.31-9.34s-12.9-7.93-22.24-6.61c-9.34 1.31-19.4 6.68-19.4 6.68zm-77.87 140.48c-5.1-1.29-9.04-1.84-10.76-.42-1.73 1.42 3.23 22.24 5.87 31.08 1.74 5.84 8.5 20.62 11.86 24.98 1.72 2.24 6.58-.75 7-3.44.5-3.14-.52-11.87-.8-17.88-.5-11.16-1.5-23.65-1.3-29.03.21-5.39-6.78-4-11.87-5.3z"/><g transform="translate(75.41 91.83)"><rect width="10" height="5" x="28.77" y="93.39" fill="#363636" rx="2.5" transform="rotate(37 33.77 95.89)"/><rect width="40" height="13" y="77.77" fill="#8F8F8F" rx="6.5" transform="rotate(37 20 84.27)"/><path fill="#FDB243" d="M111.59 42.17a205.56 205.56 0 01-19 12c-4.73 2.67-19.97 3.9-26.6 6.51-19.9 7.88-28.14 27.43-37.75 35.65-9.6 8.23-25.48-4.6-19.66-20.58 5.81-15.97 25.3-34.42 53.4-44.41 28.12-9.99 42.31-6.36 50.85-2.01 6.2 3.16 5.8 7.44-1.24 12.84z"/><path fill="#FDD291" d="M9.6 72.93c7.35-6.55 11.94-8.42 13.76-5.63 1.82 2.79-1.26 7.34-9.23 13.66 7.52-5.06 12.39-5.77 14.6-2.13 2.23 3.65-.62 7.58-8.54 11.79 7.7-3.59 12.25-4.41 13.67-2.47 1.43 1.93-.88 5.35-6.92 10.25-7 1.7-12.53-.66-16.57-7.1-4.05-6.44-4.3-12.56-.77-18.37z"/></g></g></g></svg>