<svg xmlns="http://www.w3.org/2000/svg" width="256" height="351" viewBox="0 0 256 351"><g fill="none" fill-rule="evenodd"><ellipse cx="129.785" cy="323" fill="#F3F3F3" rx="117.5" ry="28"/><path fill="#193A49" d="M125.285038,55 C95.2850383,49 66.2850383,59.6666667 38.2850383,87 C21.0970686,103.778732 6.96597235,123.770481 2.28503833,143 C-4.47221561,170.759149 4.51597271,198.415682 19.2850383,225 C44.2850383,270 78.2850383,298 139.285038,314 C179.951705,324.666667 203.951705,272.333333 211.285038,157 C200.618372,103 184.951705,73 164.285038,67 C143.618372,61 130.618372,57 125.285038,55 Z"/><g transform="translate(174.285 199)"><path fill="#FDB243" d="M0,28 L0,126 C6.66666667,132 15,135 25,135 C35,135 44,132 52,126 L52,0 L0,28 Z"/><path fill="#FDD291" d="M0,126 C0.666666667,115.333333 3.66666667,110 9,110 C14.3333333,110 17.3333333,116 18,128 C18,116 21,110 27,110 C33,110 36,115.666667 36,127 C36,114.333333 38.6666667,108 44,108 C49.3333333,108 52,114 52,126 C44,132.666667 35.3333333,136 26,136 C16.6666667,136 8,132.666667 0,126 Z"/><ellipse cx="26.5" cy="78" fill="#E29522" rx="18.5" ry="10"/><polygon fill="#E29522" points="0 81 0 71 26 57"/></g><g transform="translate(101.285 212)"><path fill="#FDB243" d="M0,0 L0,114 C7.33333333,119.333333 15,122 23,122 C31,122 40,120 50,116 L50,22 L0,0 Z"/><path fill="#FDD291" d="M0,114 C0,103.333333 2.66666667,98 8,98 C13.3333333,98 16.3333333,104 17,116 C17,104 20,98 26,98 C32,98 35,103.666667 35,115 C35,102.333333 37.6666667,96 43,96 C48.3333333,96 50.6666667,102.666667 50,116 C42.6666667,120.666667 34.3333333,123 25,123 C15.6666667,123 7.33333333,120 0,114 Z"/><ellipse cx="25.5" cy="65" fill="#E29522" rx="18.5" ry="10"/><path fill="#E29522" d="M0,30 L0,52 C3.33333333,55.3333333 10,58.3333333 20,61 C30,63.6666667 40,65.3333333 50,66 L50,59 C41.7922043,57.6261452 33.1255377,54.2928119 24,49 C14.8744623,43.7071881 6.87446232,37.3738548 0,30 Z"/></g><path fill="#FDB243" d="M117.285038,145 C119.285038,125.666667 120.285038,99 120.285038,65 C120.285038,14 145.285038,3.1052938e-13 176.285038,1 C207.285038,2 220.285038,25 221.285038,66 C222.285038,107 220.285038,119 223.285038,145 C226.285038,171 172.285038,176 143.285038,168 C123.951705,162.666667 115.285038,155 117.285038,145 Z"/><path fill="#9CC0D0" d="M109.285038,73 C123.951705,85 145.618372,91 174.285038,91 C202.951705,91 220.285038,87 226.285038,79 C244.285038,99 253.951705,121.333333 255.285038,146 C257.285038,183 250.285038,266 212.285038,291 C174.285038,316 157.285038,327 122.285038,305 C87.2850383,283 57.2850383,227 61.2850383,175 C63.951705,140.333333 79.951705,106.333333 109.285038,73 Z"/><path fill="#81AEC2" d="M139.285038,307 C107.285038,296 87.2850383,218 81.2850383,197 C77.2850383,183 73.2850383,163.666667 69.2850383,139 C64.6183717,148.333333 61.951705,158 61.2850383,168 C60.2850383,183 62.2850383,217 73.2850383,244 C84.2850383,271 102.285038,289 109.285038,295 C116.285038,301 110.285038,305 136.285038,313 C162.285038,321 150.285038,310 139.285038,307 Z"/><path stroke="#DAE0E2" stroke-linecap="round" stroke-width="4" d="M74.2850383 138C101.618372 150.666667 134.285038 156.666667 172.285038 156 210.285038 155.333333 237.285038 149.666667 253.285038 139M62.2850383 189C87.6183717 206.333333 121.285038 215 163.285038 215 205.285038 215 233.951705 209 249.285038 197M82.2850383 255C110.285038 265.666667 138.618372 270.666667 167.285038 270 195.951705 269.333333 218.951705 264.333333 236.285038 255"/><g transform="translate(138.285 41)"><ellipse cx="61" cy="26" fill="#E29522" rx="8" ry="4"/><ellipse cx="8" cy="26" fill="#E29522" rx="8" ry="4"/><path fill="#1D1D1B" d="M26.3796961,30.0695912 C31.0444305,30.1391823 37.7149617,33 39.7149617,33 C41.7149617,33 46.3080055,31.7084628 48.6074259,31.7084628 C50.9068462,31.7084628 53.7149617,37 48.7149617,40 C46.6794423,41.2213116 43.7149617,40 39.7149617,41 C35.4342073,42.0701886 33.0510268,44 27.7149617,44 C19.7149617,44 17.7149617,40.0971791 17.7149617,36 C17.7149617,31.9028209 21.7149617,30 26.3796961,30.0695912 Z"/><g transform="translate(51.715)"><circle cx="9" cy="9" r="9" fill="#1D1D1B"/><circle cx="6" cy="4" r="2" fill="#FFF"/></g><circle cx="6.715" cy="13" r="5" fill="#1D1D1B"/><circle cx="5.5" cy="10.5" r="1.5" fill="#FFF"/></g><path fill="#072A39" d="M170.854614,90.2037798 C187.297444,89.9297327 191.854614,87.2037798 203.854614,84.2037798 C215.854614,81.2037798 219.854614,77.2037798 223.854614,74.2037798 C227.854614,71.2037798 230.854614,77.2037798 227.854614,80.2037798 C224.854614,83.2037798 216,89 200.854614,92.2037798 C194.54582,93.5383108 182.180116,96.4932499 170.854614,96.2037798 C159.529112,95.9143097 141.854614,92.2037798 134.854614,89.2037798 C127.28058,85.9577653 119.854614,81.2037798 114.854614,78.2037798 C109.854614,75.2037798 112.854614,68.2037798 117.854614,72.2037798 C122.854614,76.2037798 134.854614,82.2037798 143.854614,85.2037798 C152.854614,88.2037798 154.411785,90.477827 170.854614,90.2037798 Z"/><path fill="#092531" d="M119.285038,69 C108.259499,79.4129655 100.592833,87.4129655 96.2850383,93 C81.4176774,112.282364 70.2850383,140 68.2850383,156 C63.2015321,196.66805 74.4286847,234.882353 85.4286847,256.882353 C96.4286847,278.882353 95.6173233,276.116914 100.428685,283.882353 C105.240046,291.647792 107.285038,293 111.285038,296 C115.285038,299 109.344531,302.529747 106.285038,301 C103.801843,299.758403 98.1809515,295.469712 94.2850383,290 C85.6296595,277.848181 76.2558891,258.915963 71.4286847,247.882353 C64.4286847,231.882353 60.2850383,204 59.2850383,183 C58.5483542,167.529632 59.8873804,151.420421 67.2850383,131 C69.9292114,123.701051 74.0804562,113.56966 78.2850383,107 C94.2850383,82 102.428685,76.8823529 112.285038,67 C118.855941,60.4117647 121.189274,61.0784314 119.285038,69 Z"/><path fill="#315F74" d="M41.4840208 28.6875C29.4840208 38.6875 20.1506875 49.0208333 13.4840208 59.6875 3.48402082 75.6875 4.48402082 84.6875 8.48402082 86.6875 12.4840208 88.6875 12.4840208 89.6875 16.4840208 90.6875 20.4840208 91.6875 21.4840208 91.6875 25.4840208 80.6875 29.4840208 69.6875 40.4840208 40.6875 43.4840208 35.6875 46.4840208 30.6875 48.4840208 29.6875 46.4840208 28.6875 45.1506875 28.0208333 43.4840208 28.0208333 41.4840208 28.6875zM14.4840208 93.6875C14.4840208 93.6875 6.48402082 91.6875 3.48402082 93.6875.484020823 95.6875-1.51597918 109.6875 1.48402082 120.6875 4.48402082 131.6875 9.48402082 148.6875 14.4840208 149.6875 19.4840208 150.6875 22.4840208 151.6875 22.4840208 143.6875 22.4840208 135.6875 22.4840208 108.6875 22.4840208 101.6875 22.4840208 97.0208333 21.1506875 94.3541667 18.4840208 93.6875 15.8173542 93.6875 14.4840208 93.6875 14.4840208 93.6875zM31.4840208 77.6875C34.7549047 66.9128237 39.4840208 58.6875 41.4840208 55.6875 43.4840208 52.6875 45.4840208 49.6875 51.4840208 52.6875 57.4840208 55.6875 59.4840208 56.6875 62.4840208 57.6875 65.4840208 58.6875 66.4840208 62.6875 62.4840208 75.6875 58.4840208 88.6875 56.4840208 97.6875 55.4840208 108.6875 54.4840208 119.6875 51.4840208 123.6875 47.4840208 123.6875 43.4840208 123.6875 33.4840208 123.6875 29.4840208 123.6875 25.4840208 123.6875 23.4840208 117.6875 24.4840208 111.6875 25.4840208 105.6875 28.213137 88.4621763 31.4840208 77.6875zM38.4840208 125.6875C31.4840208 125.6875 28.4840208 126.6875 26.4840208 127.6875 24.4840208 128.6875 24.4840208 146.6875 28.4840208 161.6875 32.4840208 176.6875 36.4840208 179.6875 41.4840208 178.6875 46.4840208 177.6875 53.4840208 174.6875 57.4840208 173.6875 61.4840208 172.6875 59.4840208 163.6875 57.4840208 153.6875 55.4840208 143.6875 53.4840208 135.6875 52.4840208 129.6875 51.4840208 123.6875 45.4840208 125.6875 38.4840208 125.6875zM63.4840208 18.6875C63.4840208 18.6875 52.4840208 30.6875 49.4840208 38.6875 46.4840208 46.6875 48.4840208 47.6875 52.4840208 49.6875 56.4840208 51.6875 58.4840208 53.6875 63.4840208 54.6875 68.4840208 55.6875 74.4840208 46.6875 80.4840208 38.6875 86.4840208 30.6875 103.484021 11.6875 106.484021 9.6875 109.484021 7.6875 107.484021 4.6875 101.484021 1.6875 95.4840208-1.3125 86.4840208-.3125 78.4840208 4.6875 70.4840208 9.6875 63.4840208 18.6875 63.4840208 18.6875zM49.4840208 178.6875C44.3080403 179.587671 40.4840208 180.6875 39.4840208 182.6875 38.4840208 184.6875 51.4840208 201.6875 57.4840208 208.6875 61.4484326 213.312647 73.6386983 224.066022 78.4840208 226.6875 80.9719261 228.033538 84.1906988 223.320751 83.4840208 220.6875 82.6616915 217.623304 78.1731164 210.065691 75.4840208 204.6875 70.4840208 194.6875 64.4840208 183.6875 62.4840208 178.6875 60.4840208 173.6875 54.6600014 177.787329 49.4840208 178.6875z" transform="translate(3.801 58.313)"/></g></svg>