
		<svg xmlns="http://www.w3.org/2000/svg" xmlns:xlink="http://www.w3.org/1999/xlink" version="1.1" width="3168.5393258426966" height="1081.9622779941267">
			<rect fill="#325f74" width="3168.5393258426966" height="1081.9622779941267"/>
			<g transform="scale(8.426966292134832) translate(10, 10)">
				<defs id="SvgjsDefs1913"></defs><g id="SvgjsG1914" featureKey="yUUXwC-0" transform="matrix(2.159090995788574,0,0,2.159090995788574,-5.318181818181818,5.681818181818182)" fill="#fcb141"><path xmlns="http://www.w3.org/2000/svg" d="m17.128906 2c-0.856859 0-1.546875 0.7910382-1.546875 1.7734375v5.3515625h15.289063c0.504354 0 0.969504 0.113687 1.388672 0.3046875l0.857422-2.1992187h2.509765l6.240235 16.021484h-2.302735l-1.492187-4.109375h-3.654297v10.802734l6.044922 6.929688v-8.71875h3.990234c0.856861 0 1.546875-0.791038 1.546875-1.773438v-22.609374c0-0.9823999-0.690014-1.7734375-1.546875-1.7734375zm17.238282 7.3671875-0.548829 1.4570315c0.381569 0.615611 0.59961 1.338738 0.59961 2.074219v4.441406h2.964843z" style="" fill="#fcb141" stroke-width="1.5714285"></path><path xmlns="http://www.w3.org/2000/svg" d="m3.546875 11.125c-0.8568603 0-1.546875 0.791038-1.546875 1.773438v22.609374c0 0.982402 0.6900147 1.773438 1.546875 1.773438h3.9902344v8.71875l7.6054686-8.71875h15.728516c0.856859 0 1.546875-0.791036 1.546875-1.773438v-22.609374c0-0.9824-0.690016-1.773438-1.546875-1.773438zm11.328125 5.134766h0.376953c0.250961 0 0.576978 0.02276 0.978516 0.07031 0.45173 0.04755 0.777746 0.07227 0.978515 0.07227 0.05019 0.190198 1.88e-4 0.452309-0.15039 0.785156-0.100385 0.142649-0.150391 0.260369-0.150391 0.355469-0.100384 0.237747-0.17637 0.617579-0.226562 1.140625-0.05019 0.142649-0.07422 0.23956-0.07422 0.287109 0.250961 0 0.526972-0.04943 0.828125-0.144531 1.254805-0.142649 2.382875-0.355327 3.386719-0.640625v1.710937c-1.35519 0.332847-2.735243 0.594958-4.140625 0.785157h-0.376953c-0.05019 0.475496-0.1002 1.045243-0.150391 1.710937 0.100384 0 0.252356-0.02277 0.453125-0.07031 0.853267-0.14265 1.479321-0.237607 1.880859-0.285157 0-0.04755 0.02598-0.142504 0.07617-0.285156v-0.427734c-0.05019-0.190199-1.87e-4 -0.309873 0.150391-0.357422l1.80664 0.285156 0.07617 0.214844c-0.05019 0.0951-0.126179 0.285015-0.226562 0.570312 1.204613 0.0951 2.182664 0.452168 2.935547 1.070313 1.154421 1.093641 1.732421 2.280614 1.732421 3.564453v0.5c-0.05019 1.711786-1.028243 3.138106-2.935546 4.279297-0.752883 0.427947-1.356864 0.642578-1.808594 0.642578h-0.07422l-0.376947-0.357426c-0.552115-0.427947-0.978144-0.735584-1.279297-0.925781 1.254805-0.190199 2.332868-0.571982 3.236328-1.142578 0.90346-0.760794 1.381449-1.640131 1.431641-2.638672v-0.285156c-0.05019-1.093642-0.578188-1.997694-1.582031-2.710938-0.200768-0.142649-0.500806-0.260369-0.902344-0.355469h-0.07617c-0.200769-0.0951-0.47678-0.167294-0.828125-0.214843-0.652499 1.759335-1.730562 3.518009-3.236328 5.277343 0.150577 0.475497 0.324621 0.880044 0.52539 1.212891-0.250961 0.04755-0.601003 0.189983-1.052734 0.427734-0.25096 0.04755-0.426959 0.09503-0.527344 0.142579-0.150576-0.0951-0.276568-0.260299-0.376953-0.498047-0.351346 0.237748-0.627357 0.402947-0.828125 0.498047-1.054036 0.713243-1.982081 1.070312-2.785156 1.070312h-0.300781c-1.154421-0.0951-1.7824283-0.902241-1.8828128-2.423828v-0.285156c0.050192-1.474038 0.7782118-2.877596 2.1835938-4.208985 0.652499-0.618144 1.580543-1.187892 2.785156-1.710937 0.05019-0.332848 0.07617-0.832353 0.07617-1.498047 0.05019-0.427947 0.07422-0.617863 0.07422-0.570313h-1.128906c-0.552114 0.04755-0.978144 0.07031-1.279297 0.07031h-1.128906c-0.05019 0-0.12618-0.02277-0.226563-0.07031l-0.300781-0.572265c-0.05019-0.142649-0.1002-0.26037-0.150391-0.355469v-0.07227c-0.150577-0.285298-0.176555-0.497976-0.07617-0.640625h0.828125c0.351346 0.04755 0.60333 0.07031 0.753906 0.07031h1.128907c0.752882 0 1.35491-0.04748 1.80664-0.142578 0-0.0951 0.02403-0.237537 0.07422-0.427735 0.100385-0.713244 0.152344-1.28299 0.152344-1.710937 0-0.285298-0.02598-0.547409-0.07617-0.785156zm3.3125 7.132812c-0.853267 0.142649-1.455295 0.285086-1.806641 0.427734-0.05019 1e-6 -0.126179 0.02277-0.226562 0.07031v1.640625c0 0.855893 0.02598 1.285156 0.07617 1.285156 0.953652-1.23629 1.605686-2.377737 1.957031-3.423828zm-3.839844 1.210938c-1.204613 0.665694-2.132657 1.594463-2.785156 2.783203-0.301153 0.380396-0.451172 0.855186-0.451172 1.425781 0 0.665694 0.326017 0.998047 0.978516 0.998047 0.602306 0 1.22836-0.260158 1.880859-0.783203 0.05019-0.04755 0.102153-0.09503 0.152344-0.142578 0.250961-0.285298 0.425007-0.45245 0.525391-0.5l-0.07422-0.214844c-0.150576-1.141191-0.226563-2.330116-0.226563-3.566406z" style="" fill="#fcb141" stroke-width="1.5714285"></path></g><g id="SvgjsG1915" featureKey="edi7fj-0" transform="matrix(2.4632670879364014,0,0,2.4632670879364014,110.50158168574076,20.682682784581278)" fill="#daecfb"><path d="M4.7559 17.4121 l4.4238 0 l0 2.5879 l-7.3535 0 l0 -14.111 l2.9297 0 l0 11.523 z M12.48044375 8.457 c-0.88867 0 -1.6309 -0.72266 -1.6309 -1.6211 c0 -0.88867 0.74219 -1.6113 1.6309 -1.6113 c0.86914 0 1.6113 0.72266 1.6113 1.6113 c0 0.89844 -0.74219 1.6211 -1.6113 1.6211 z M11.04494375 20 l0 -10.039 l2.832 0 l0 10.039 l-2.832 0 z M22.68553125 9.766 c2.6367 0 4.8242 1.9531 4.8242 5.2344 s-2.1875 5.2344 -4.8242 5.2344 c-1.3867 0 -2.5977 -0.55664 -3.1641 -1.543 l-0.068359 1.3086 l-2.666 0 l0 -15 l2.8125 0 l0 6.1816 c0.58594 -0.9082 1.7578 -1.416 3.0859 -1.416 z M22.03123125 17.9004 c1.4941 0 2.666 -1.1035 2.666 -2.9004 c0 -1.8066 -1.1719 -2.9102 -2.666 -2.9102 c-1.4844 0 -2.6563 1.1523 -2.6563 2.9102 s1.1621 2.9004 2.6563 2.9004 z M32.324228125 11.5527 c0.50781 -0.88867 1.8262 -1.709 3.2813 -1.709 l0 2.5098 c-2.1289 0 -3.1445 0.625 -3.1445 2.7539 l0 4.8926 l-2.832 0 l0 -10.039 l2.6953 0 l0 1.5918 z M46.698781249999996 14.834 l-0.029297 0.67383 l-7.4414 0 c0.11719 1.6699 1.2305 2.4707 2.5684 2.4707 c1.0059 0 1.7871 -0.46875 2.168 -1.3574 l2.5781 0.38086 c-0.66406 2.0313 -2.4707 3.1934 -4.7266 3.1934 c-3.2422 0 -5.3613 -1.9141 -5.3613 -5.2148 s2.1777 -5.2344 5.2734 -5.2344 c2.8418 0 4.9609 1.5723 4.9707 5.0879 z M41.74808125 11.7383 c-1.2793 0 -2.168 0.5957 -2.4414 1.9336 l4.6094 0 c-0.14648 -1.2793 -1.0156 -1.9336 -2.168 -1.9336 z M52.1387125 17.4121 l4.4238 0 l0 2.5879 l-7.3535 0 l0 -14.111 l2.9297 0 l0 11.523 z M59.86325625 8.457 c-0.88867 0 -1.6309 -0.72266 -1.6309 -1.6211 c0 -0.88867 0.74219 -1.6113 1.6309 -1.6113 c0.86914 0 1.6113 0.72266 1.6113 1.6113 c0 0.89844 -0.74219 1.6211 -1.6113 1.6211 z M58.42775625 20 l0 -10.039 l2.832 0 l0 10.039 l-2.832 0 z M70.09764375 9.766 c2.4121 0 3.7402 1.25 3.7402 3.4766 l0 6.7578 l-2.8223 0 l0 -6.1523 c0 -1.3379 -0.83008 -1.8262 -1.7969 -1.8262 c-1.1621 0 -2.2168 0.58594 -2.2363 2.4414 l0 5.5371 l-2.8125 0 l0 -10.039 l2.8125 0 l0 1.1133 c0.70313 -0.83008 1.7871 -1.3086 3.1152 -1.3086 z M83.476521875 9.961 l2.6758 0 l0 9.2871 c0 3.9063 -2.1191 5.4883 -5.3223 5.4883 c-2.8809 0 -4.4434 -1.2109 -5.1758 -3.1152 l2.334 -0.99609 c0.56641 1.2988 1.3867 1.9238 2.7344 1.9238 c1.7773 0 2.6074 -1.1133 2.6074 -3.0957 l0 -1.1719 c-0.58594 0.80078 -1.7383 1.3672 -3.0469 1.3672 c-2.4902 0 -4.5801 -1.9629 -4.5801 -4.9609 c0 -3.0078 2.0996 -4.9219 4.5996 -4.9219 c1.4063 0 2.5586 0.625 3.1055 1.5234 z M81.005821875 17.373 c1.4648 0 2.5977 -1.1914 2.5977 -2.6855 c0 -1.5039 -1.1133 -2.6953 -2.5977 -2.6953 c-1.4746 0 -2.5879 1.1426 -2.5879 2.6953 c0 1.5332 1.1328 2.6855 2.5879 2.6855 z M93.7499875 20.19531 c-3.1934 0 -5.498 -1.9434 -5.498 -5.2246 c0 -3.2617 2.2852 -5.2051 5.498 -5.2051 c3.2324 0 5.5078 1.9434 5.5078 5.2051 c0 3.2813 -2.2852 5.2246 -5.5078 5.2246 z M93.7206875 17.959 c1.6309 0 2.7441 -1.1914 2.7441 -2.9883 s-1.1133 -2.9883 -2.7441 -2.9883 c-1.5723 0 -2.6758 1.1914 -2.6758 2.9883 s1.1035 2.9883 2.6758 2.9883 z"></path></g>
			</g>
		</svg>
	